<?xml version="1.0" encoding="utf-8"?>
<!-- Generator: Adobe Illustrator 19.1.0, SVG Export Plug-In . SVG Version: 6.00 Build 0)  -->
<svg version="1.1" id="Layer_1" xmlns="http://www.w3.org/2000/svg" xmlns:xlink="http://www.w3.org/1999/xlink" x="0px" y="0px"
	 viewBox="0 0 70 48" style="enable-background:new 0 0 70 48;" xml:space="preserve">
<style type="text/css">
	.st0{fill:#231F20;}
	.st1{stroke:#231F20;stroke-width:0.25;stroke-miterlimit:10;}
	.st2{fill:#FFFFFF;}
	.st3{fill:none;stroke:#231F20;stroke-width:0.5;stroke-miterlimit:10;}
	.st4{fill:none;stroke:#231F20;stroke-width:5.000000e-02;stroke-miterlimit:10;}
	.st5{fill:none;stroke:#231F20;stroke-width:0.25;stroke-linecap:round;stroke-miterlimit:10;}
</style>
<path class="st0" d="M42.2,26.2c-0.7-0.4-1.5-0.8-2.2-1.3c-0.4-0.3-0.8-0.5-1.2-0.8c-0.3-0.1-0.5-0.3-0.8-0.4
	c-0.2-0.1-0.4-0.3-0.6-0.5c-0.2-0.2-0.5-0.3-0.7-0.4c-0.3-0.1-0.5-0.3-0.8-0.4c-0.5-0.3-1-0.6-1.5-0.9c-1-0.6-2-1.3-2.9-2
	c-1.4-1.1-3.1-1.7-4.6-2.7c-0.5-0.3-1-0.7-1.5-1c-0.4-0.3-0.9-0.6-1.3-1c-0.2-0.1-0.4-0.3-0.6-0.2c-0.2,0-0.4,0.3-0.5,0.5
	c-0.1,0.2-0.2,0.4-0.4,0.7c-0.1,0.2-0.2,0.4-0.2,0.7c0,0.7,1.1,1.2,1.6,1.4c0.5,0.2,1.1,0.7,1.5,1c0.7,0.5,1.4,1,2,1.6
	c0.6,0.5,1.3,0.9,2,1.3c2.9,1.5,5.2,3.6,8.1,5c3.2,1.6,6.1,3.3,9,5.4c0.2,0.1,0.3-0.2,0.3-0.3c0-0.2-0.2-0.3-0.2-0.5
	c0-0.3,0.3-0.5,0.5-0.7c0.2-0.2,0.5-0.4,0.5-0.7c0-0.2-0.2-0.3-0.4-0.4C45.6,28.3,43.9,27.2,42.2,26.2"/>
<path d="M21.6,18.8c-0.1-0.2-0.4-0.3-0.6-0.3c-0.1,0-0.1,0-0.1,0c0,0,0,0,0,0c0,0-0.1,0-0.1,0c-0.3,0-0.6,0.1-0.8,0.4
	c-0.1,0.2-0.3,0.4-0.3,0.6c0,0.5,0.4,0.9,1,1c0,0,0,0,0,0c0,0,0,0,0,0c0,0,0,0,0,0c0,0,0,0,0.1,0c0.6,0,1.1-0.5,1.1-1
	C21.8,19.3,21.7,19,21.6,18.8z M21.5,19.5c0-0.3,0-0.5-0.1-0.7c0,0,0.1,0.1,0.1,0.1c0.1,0.1,0.2,0.3,0.2,0.5c0,0.3-0.2,0.5-0.4,0.7
	C21.3,20,21.4,19.8,21.5,19.5z"/>
<g>
	<path class="st1" d="M41.7,37.1C41.7,37.1,41.7,37.1,41.7,37.1C41.6,37.1,41.6,37,41.7,37.1l3.3-6.2c0,0,0,0,0.1,0c0,0,0,0,0,0.1
		L41.7,37.1C41.7,37.1,41.7,37.1,41.7,37.1z"/>
	<path class="st1" d="M41.7,37.1C41.7,37.1,41.6,37.1,41.7,37.1C41.6,37.1,41.6,37.1,41.7,37.1C41.6,37,41.6,37,41.6,37l3.4-6.1
		c0,0,0,0,0.1,0c0,0,0,0,0.1,0c0,0,0,0,0,0.1c0,0,0,0,0,0.1L41.7,37.1C41.7,37.1,41.7,37.1,41.7,37.1z M45.1,30.9
		C45.1,30.9,45,30.9,45.1,30.9C45,30.9,45,30.9,45.1,30.9L41.7,37c0,0,0,0,0,0c0,0,0,0,0,0c0,0,0,0,0,0c0,0,0,0,0,0L45.1,30.9
		C45.1,30.9,45.1,30.9,45.1,30.9C45.1,30.9,45.1,30.9,45.1,30.9C45.1,30.9,45.1,30.9,45.1,30.9z"/>
</g>
<path class="st0" d="M46.7,31.8c-0.1-0.1-0.3,0-0.3,0.1c0,0-0.4,0.7-0.7,1c-0.1,0.1-0.2,0.3-0.3,0.5l-0.1,0.2
	c-0.2,0.2-0.3,0.5-0.4,0.6c0,0.1-0.1,0.2-0.2,0.3l0,0c-0.2,0.3-0.4,0.6-0.6,0.9c-0.3,0.5-0.8,1.4-1,1.6c0,0.1-0.7-0.1-0.8-0.1
	c-0.4,0-0.8,0-1.2,0c-0.1,0-0.2,0-0.2,0.1c0,0,0,0.1,0.1,0.1c0.5,0.3,1.2,0.3,1.7,0.4c0.2,0,0.5,0.1,0.7-0.1
	c0.1-0.1,0.2-0.2,0.3-0.3c0.9-1.5,1.9-3,2.8-4.5C46.6,32.5,46.9,32,46.7,31.8z"/>
<path d="M46.1,31.6c0,0-0.5,0.1-0.8,0.2c-0.1,0-0.2,0-0.2,0c-0.3,0.1-0.7,0.1-0.9,0c-0.2-0.1-0.4-0.3-0.5-0.5
	c-0.2-0.2-0.4-0.4-0.5-0.5c-0.2-0.1-0.4-0.2-0.6-0.3l0,0l0,0c-0.2-0.1-0.4-0.2-0.5-0.2c-0.2-0.2-0.5-0.3-0.8-0.4
	c-0.1,0-0.1,0-0.2-0.1l0,0c-0.2-0.1-0.7-0.3-0.8-0.5c-0.2-0.3-0.6-0.6-0.8-0.7c-0.1-0.1-0.3-0.3-0.4-0.5c0,0-0.1-0.1-0.1,0
	c-0.1,0,0,0.1,0,0.1c0,0-0.1,0.1-0.1,0.1c-0.1,0-0.1,0-0.1-0.1c0,0-0.1-0.1-0.1,0c0,0-0.1,0.1,0,0.1c0,0.1,0.4,0.9,0.7,1.2
	c0.3,0.3,0.4,0.4,0.7,0.5c0.1,0.1,0.2,0.1,0.3,0.2c0.2,0.1,0.5,0.3,0.9,0.4c0.2,0.1,0.4,0.1,0.5,0.1c0.4,0.1,0.8,0.2,0.9,0.3
	c0.1,0.1,0.1,0.1,0.2,0.2c0.2,0.1,0.4,0.3,0.6,0.7c0.1,0.2,0.8,0.6,1.5,0.6c0.1,0,0.1,0,0.2,0c0.8-0.1,1.2-0.5,1.4-0.6
	c0,0,0-0.1,0-0.1C46.2,31.6,46.1,31.6,46.1,31.6z"/>
<path d="M38.9,27.1L38.9,27.1c-0.1-0.1-0.3-0.2-0.4-0.2c0,0-0.1,0-0.1,0.1l-0.1,0.2l-0.2,0c0,0-0.1,0-0.1,0.1c0,0.3,0,0.8,0.4,0.9
	c0,0,0.1,0,0.1,0c0.3,0,0.5-0.2,0.6-0.5l0,0C39.2,27.4,39,27.2,38.9,27.1z M38.8,27.6c-0.1,0.2-0.2,0.3-0.3,0.2
	c-0.2,0-0.2-0.3-0.2-0.4l0.1,0c0,0,0,0,0.1,0l0.1-0.1c0.1,0,0.1,0.1,0.2,0.1l0,0C38.7,27.4,38.9,27.5,38.8,27.6z"/>
<path class="st0" d="M35.3,31.9c-0.8-0.6-1.5-1.2-2.3-1.8c-0.5-0.4-1.1-0.6-1.5-1.1c-0.3-0.3-0.5-0.7-0.7-1
	c-0.3-0.3-0.7-0.6-1.1-0.8c-0.9-0.6-1.8-1.1-2.8-1.7c-0.8-0.5-1.4-1.2-2.1-1.7c-1.2-0.9-2.5-1.7-3.9-2.4c-0.8-0.4-1.6-0.8-1.9-1.6
	c-0.2-0.6-0.2-1.2,0.1-1.8c0.3-0.8,0.9-1.6,1.6-2.1c0.3-0.2,0.6-0.2,0.8-0.4c0.3-0.2,0.4-0.6,0.6-0.8c0.2-0.2,0.3-0.5,0.5-0.7
	c0.3-0.4,0.6-0.9,0.8-1.3c0.1-0.1,0.2-0.4,0.3-0.6c0.3-0.5,0.6-1,0.6-1.2c0.1-0.2,0.6-1.1,0.8-1.5l0-0.1c0-0.1,0.1-0.1,0.1-0.2
	c0,0,0.1-0.2,0.7-1.1l0,0c0.4-0.6,0.8-1.4,0.9-1.6L27,6.2c0.2-0.4,0.8-1.5,1.1-2c0.2-0.3,0.4-0.7,0.6-1.1c0.1-0.2,0.2-0.4,0.3-0.6
	c0.1-0.2,0.2-0.5,0.3-0.6c0-0.1,0-0.1,0.1-0.1c0,0,0.1,0,0.1,0.1L29.7,2c0.4,0.2,1.1,0.5,1.5,0.6c0.2,0.1,0.3-0.3,0.5-0.3
	c0.1,0,0.2,0,0.3,0.1c0.1,0,0.2,0,0.3,0c0.2,0,0.4,0.1,0.6,0.2c0.4,0.2,2,1,2.3,1.3L35.3,4c0.2,0.2,0.5,0.3,0.9,0.5
	c0.4,0.2,0.9,0.5,1.1,0.9c0,0.1,0.1,0.1,0.1,0.1c0.2,0.1,2.5,1.3,4.6,2.5c0.1,0,0.1,0,0.2,0c0.1,0,0.1-0.1,0.1-0.2c0,0,0,0,0,0
	c0.1,0,0.2,0.1,0.2,0.2c0.2,0.2,0.5,0.3,0.9,0.5c0.4,0.1,0.8,0.4,1.2,0.6c0.2,0.1,0.3,0.2,0.5,0.3c0.4,0.2,1.2,0.6,1.4,0.8l0.1,0
	c0.2,0.1,0.5,0.3,0.7,0.4c0,0.1,0,0.1,0,0.2c0,0.1,0.1,0.1,0.1,0.1c0.5,0.1,1,0.3,1.2,0.4c0.2,0.2,0.5,0.4,0.9,0.5
	c0.2,0.1,0.6,0.2,1,0.4l0.1,0c0.2,0.1,0.4,0.2,0.6,0.2c0.6,0.2,1.1,0.5,1.7,0.9c0.2,0.1,0.5,0.3,1,0.5c0,0,0,0,0,0c0,0,0,0,0,0.1
	c0,0.1,0,0.1,0,0.2c0,0.1,0.1,0.1,0.1,0.1c0.3,0.1,0.5,0.3,0.7,0.4c0,0,0,0.1-0.2,0.4c-0.1,0.2-0.3,0.6-0.5,1l0,0.1
	c-0.2,0.3-0.3,0.7-0.4,0.9c-0.3,0.5-1.2,2-1.6,2.7c-0.2,0.3-0.3,0.5-0.5,0.7l0,0.1c-0.3,0.4-0.4,0.5-0.4,0.7c0,0,0,0.1,0,0.1
	c-0.1,0.2-0.2,0.4-0.4,0.8c-0.3,0.5-0.6,1-0.7,1.1c0,0,0,0.1-0.1,0.1c-0.1,0.1-0.3,0.3-0.5,0.7c-0.3,0.5-0.9,1.7-1.2,2.1l-0.2,0.5
	c-0.1,0.1,0,0.2,0,0.3c0.1,0.1,0.4,0.5,0.5,0.8c0.2,0.7,0,1.3-0.5,1.8c-0.3,0.3-0.5,0.4-0.7,0.6c-0.1,0.1-0.2,0.1-0.2,0.2
	c-0.1,0.1-0.6,0.7-0.7,1.1c0,0.1,0,0.3,0.1,0.4l0,0c0,0,0,0.1,0.1,0.2c-0.3-0.3-0.9-0.7-1.3-1c-0.1-0.1-0.3-0.2-0.3-0.2
	c-0.2-0.2-0.7-0.5-1.2-0.8l0,0c-0.3-0.2-0.6-0.4-0.7-0.5c-0.3-0.2-2.7-1.6-3.1-1.8c-0.3-0.1-0.5-0.2-0.7-0.2c0,0-0.1-0.1-0.1-0.1
	c-0.1,0-0.1-0.1-0.2-0.1l-0.1-0.1c-0.1-0.1-0.3-0.1-0.4-0.2c0,0,0,0,0,0c0,0-0.3-0.2-0.6-0.4l-0.8-0.5l0,0.4c0,0.1,0,0.1,0,0.2
	l0,0.1l0.1,0c0.6,0.4,1,0.6,1.3,0.6c0.1,0,0.3,0.1,0.4,0.2l0.1,0.1c0.1,0,0.1,0.1,0.2,0.1c0,0,0,0,0.1,0.1c0,0.1,0.1,0.1,0.2,0.1
	c0,0,0.3,0,0.6,0.2c0.4,0.2,2.7,1.6,3.1,1.8c0.1,0.1,0.4,0.3,0.8,0.5l0.1,0.1c0.4,0.3,0.9,0.6,1.1,0.7c0.1,0.1,0.2,0.1,0.4,0.3
	c0.4,0.3,0.9,0.7,1.3,1c0.3,0.2,0.5,0.3,0.6,0.2c0.3-0.2,0.1-0.6,0.2-0.8c0-0.3,0.2-0.5,0.3-0.7c0.3-0.3,0.7-0.5,1-0.8
	c0.6-0.5,0.9-1.4,0.7-2.1c-0.1-0.4-0.3-0.8-0.4-1.3c-0.1-0.4,0.3-0.7,0.5-1c0.5-0.8,1-1.5,1.5-2.3c0.5-0.9,1-1.8,1.5-2.6
	c0.4-0.6,0.7-1.1,1.1-1.7c0.7-1.1,1.3-2.3,1.9-3.5c0.1-0.2,0.2-0.4,0.2-0.7c0-0.2-0.1-0.3-0.3-0.5c0,0,0,0-0.1-0.1
	c-0.1,0-0.6-0.4-0.6-0.4c0-0.1,0-0.2,0-0.2c-0.1-0.2-0.2-0.2-0.3-0.3c-0.4-0.2-0.7-0.3-0.9-0.4c-0.6-0.4-1.2-0.7-1.8-0.9l-0.6-0.2
	c-0.5-0.2-0.9-0.4-1-0.4c-0.3-0.1-0.5-0.3-0.7-0.4c-0.2-0.2-0.8-0.4-1.1-0.5c0-0.1-0.1-0.2-0.2-0.3c-0.1-0.1-0.6-0.3-0.8-0.4
	c-0.2-0.1-1-0.6-1.5-0.8c-0.1-0.1-0.3-0.2-0.5-0.3c-0.4-0.2-0.8-0.4-1.2-0.6c-0.4-0.1-0.6-0.3-0.8-0.4c-0.1-0.1-0.2-0.1-0.3-0.2
	c-0.2-0.1-0.4-0.1-0.4,0c0,0-0.1,0-0.1,0.1c-0.6-0.3-3.9-2.1-4.4-2.4c-0.3-0.5-0.9-0.8-1.3-1c-0.3-0.2-0.5-0.3-0.8-0.5l-0.2-0.1
	c-0.2-0.2-0.5-0.3-0.8-0.4c-0.4-0.2-0.8-0.4-1.2-0.7c0,0,0,0-0.1,0c-0.3-0.2-0.6-0.3-1-0.4c-0.3-0.1-0.6-0.3-1-0.1
	c-0.1,0-0.1,0.1-0.2,0.2c0,0-0.1,0.1-0.1,0.1c-0.4-0.1-0.9-0.4-1.2-0.6l-0.2-0.1c-0.2-0.1-0.3-0.1-0.5-0.1c-0.2,0.1-0.2,0.2-0.3,0.2
	c0,0,0,0.1-0.1,0.2c-0.1,0.1-0.1,0.3-0.3,0.5c-0.1,0.2-0.2,0.4-0.3,0.6c-0.2,0.3-0.3,0.7-0.5,1c-0.3,0.5-0.9,1.6-1.1,2l-0.1,0.2
	c-0.1,0.1-0.4,0.7-0.9,1.6l0,0.1c-0.4,0.7-0.6,1-0.7,1.1l-0.1,0.2c-0.2,0.5-0.7,1.3-0.8,1.6c-0.1,0.2-0.3,0.7-0.6,1.1L23.2,12
	c-0.1,0.2-0.2,0.4-0.3,0.5c-0.2,0.4-0.5,0.9-0.8,1.3c-0.2,0.2-0.3,0.5-0.5,0.7c-0.2,0.2-0.5,0.3-0.8,0.5c-0.2,0.1-0.5,0.2-0.7,0.3
	c-0.3,0.2-0.5,0.5-0.7,0.8c-0.4,0.6-0.8,1.2-1.2,1.8c-0.2,0.5-0.4,0.9-0.7,1.4c-0.2,0.4-0.4,0.8,0,1.2c0.3,0.2,0.8,0.7,1.2,0.9
	c0.2,0.1,0.3,0.2,0.5,0.3l0.1,0c0.3,0.2,0.5,0.3,0.7,0.4c0.4,0.2,1,0.6,1.4,0.8c0.4,0.2,1,0.7,1.2,1c0.3,0.3,0.6,0.6,1.6,1.1
	c0.8,0.4,1.8,1,2.6,1.5l0.4,0.3c0.4,0.3,1.1,0.8,1.6,1.2c0.4,0.3,0.8,0.7,1.1,0.9c0.4,0.3,1,0.8,1.5,1.2c0.3,0.3,0.7,0.5,0.9,0.7
	c0.4,0.3,1.4,1.1,2.3,1.9l0.4,0.3c0.7,0.6,1.3,1.1,1.6,1.3c0.6,0.5,2.1,1.6,2.8,2.1c0.4,0.3,0.7,0.5,0.9,0.6
	c0.1,0.1,0.2,0.1,0.2,0.2c0.2,0.2,0.9,0.2,1-0.2c0.1-0.4-0.5-0.7-0.8-0.9C39,34.8,37.2,33.3,35.3,31.9z"/>
<path class="st1" d="M36.7,26.2c0-0.1,0-0.1,0-0.2c0,0,0,0,0-0.1c0,0,0,0,0,0c0,0,0,0,0-0.1c-1.5-0.9-3.6-2.2-3.8-2.4
	c-0.1-0.1-0.4-0.3-0.8-0.5l0,0c-0.7-0.4-1.7-1.1-1.9-1.2c-0.1-0.1-0.7-0.5-1.3-0.9c0,0.1,0,0.1-0.1,0.2c0.5,0.4,1.2,0.8,1.3,0.9
	c0.1,0.1,1.2,0.8,1.9,1.2c0.4,0.3,0.7,0.4,0.8,0.5c0.2,0.1,1.7,1.1,3.1,2c-0.1,0-0.1-0.1-0.2-0.1c-0.3-0.2-3.7-2.2-3.7-2.3
	c0,0-2.7-1.7-3.2-2c0,0.1,0,0.1,0,0.2c0,0,0,0.1,0.1,0.1c0,0,0.1,0.1,0.1,0.1c0.1,0.1,0.2,0.1,0.3,0.2c0.3,0.2,0.6,0.4,1,0.6
	c0.3,0.2,0.6,0.4,1,0.6c0.2,0.1,0.4,0.3,0.6,0.4l0,0c0.8,0.5,3.4,2.1,3.7,2.2c0.1,0,0.2,0.1,0.3,0.2C36.2,26,36.4,26.1,36.7,26.2
	C36.7,26.2,36.7,26.2,36.7,26.2z"/>
<path d="M28,20.7c0,0-0.1,0-0.1,0c0,0,0,0.1,0,0.1c0.1,0,0.1,0.1,0.2,0.1c0.1,0,0.1,0.1,0.2,0.1c0.1,0,0.1,0.1,0.2,0
	c0,0,0-0.1,0-0.1c0-0.1-0.1-0.1-0.1-0.1c-0.1,0-0.1-0.1-0.2-0.1C28.2,20.8,28.1,20.7,28,20.7z"/>
<path d="M28.6,20.7C28.6,20.7,28.6,20.7,28.6,20.7c0-0.1-0.1-0.2-0.1-0.2c-0.1-0.1-0.2-0.1-0.3-0.2l0,0c0,0-0.1,0-0.1,0
	c0,0,0,0.1,0,0.1c0.1,0,0.1,0.1,0.2,0.1c0.1,0,0.1,0.1,0.2,0.1C28.4,20.7,28.5,20.8,28.6,20.7C28.6,20.8,28.6,20.8,28.6,20.7z"/>
<path d="M28.4,19c0-0.4-0.1-0.6-0.3-0.7c-0.1,0-0.1-0.1-0.2,0l0,0v0c-0.1,0-0.1,0.1-0.1,0.2c0,0.2,0,0.9-0.4,1.4
	c-0.2,0.4-0.6,0.7-0.7,0.7c-0.1,0-0.1,0.1-0.1,0.2c0,0.1,0,0.3,0.1,0.5c0.1,0.2,0.3,0.4,0.5,0.4c0,0,0,0,0.1,0
	c0.3,0,0.8-0.6,0.9-1.1C28.2,20.4,28.5,19.6,28.4,19z M28,18.4c0,0,0.2,0.2,0.2,0.6c0.1,0.6-0.2,1.3-0.2,1.4l0,0
	c-0.1,0.5-0.6,1-0.8,1c-0.2,0-0.3-0.1-0.4-0.3c-0.1-0.1-0.1-0.2-0.1-0.3c0,0,0-0.1,0.1-0.1c0.1-0.1,0.5-0.3,0.8-0.8
	C28,19.3,28,18.6,28,18.4C28,18.4,28,18.4,28,18.4z"/>
<g>
	<path d="M28.3,19.8C28.3,19.8,28.3,19.8,28.3,19.8c-0.2-0.3-0.5-0.5-0.5-0.5c0,0,0,0,0-0.1c0,0,0.1,0,0.1,0
		C27.8,19.3,28.1,19.5,28.3,19.8C28.3,19.8,28.3,19.8,28.3,19.8C28.3,19.8,28.3,19.8,28.3,19.8z"/>
	<path d="M28.3,19.9C28.3,19.9,28.2,19.9,28.3,19.9c-0.2-0.3-0.5-0.5-0.6-0.5c0,0,0,0,0-0.1c0,0,0,0,0-0.1c0,0,0,0,0.1,0
		c0,0,0,0,0.1,0c0,0,0.3,0.2,0.5,0.5C28.4,19.8,28.4,19.8,28.3,19.9C28.4,19.8,28.4,19.8,28.3,19.9C28.3,19.9,28.3,19.9,28.3,19.9z
		 M27.8,19.3C27.8,19.3,27.8,19.3,27.8,19.3C27.8,19.3,27.8,19.3,27.8,19.3C27.8,19.3,27.8,19.3,27.8,19.3
		C27.8,19.3,27.8,19.3,27.8,19.3c0,0.1,0.3,0.3,0.5,0.5c0,0,0,0,0,0c0,0,0,0,0,0c0,0,0,0,0,0c0,0,0,0,0,0
		C28.1,19.5,27.8,19.3,27.8,19.3C27.8,19.3,27.8,19.3,27.8,19.3z"/>
</g>
<g>
	<path d="M28.2,20.2C28.2,20.2,28.2,20.2,28.2,20.2c-0.2-0.3-0.5-0.5-0.6-0.6c0,0,0,0,0-0.1c0,0,0,0,0.1,0
		C27.7,19.6,28.1,19.8,28.2,20.2C28.3,20.1,28.3,20.2,28.2,20.2C28.2,20.2,28.2,20.2,28.2,20.2z"/>
	<path d="M28.2,20.2C28.2,20.2,28.1,20.2,28.2,20.2c-0.2-0.3-0.6-0.6-0.6-0.6c0,0,0,0,0-0.1c0,0,0,0,0-0.1c0,0,0,0,0.1,0
		c0,0,0,0,0.1,0c0,0,0.4,0.3,0.5,0.6C28.3,20.1,28.3,20.1,28.2,20.2C28.3,20.2,28.3,20.2,28.2,20.2C28.2,20.2,28.2,20.2,28.2,20.2z
		 M27.7,19.6C27.7,19.6,27.7,19.6,27.7,19.6C27.7,19.6,27.7,19.6,27.7,19.6C27.7,19.6,27.7,19.6,27.7,19.6
		C27.7,19.6,27.7,19.6,27.7,19.6c0,0,0.3,0.3,0.5,0.6c0,0,0,0,0,0c0,0,0,0,0,0c0,0,0,0,0,0C28,19.8,27.7,19.6,27.7,19.6
		C27.7,19.6,27.7,19.6,27.7,19.6z"/>
</g>
<g>
	<path d="M28.1,18.8c0,0-0.1,0-0.1,0c-0.1-0.1-0.2-0.2-0.2-0.2c0,0,0-0.1,0-0.1c0,0,0.1,0,0.1,0c0,0,0,0.1,0.1,0.1
		c0.1,0,0.1,0,0.2,0c0,0,0.1,0,0.1,0c0,0,0,0.1,0,0.1C28.2,18.8,28.2,18.8,28.1,18.8z"/>
	<path d="M28.1,18.9c-0.1,0-0.1,0-0.2,0c-0.1-0.1-0.2-0.2-0.2-0.2c0,0,0,0,0-0.1c0,0,0,0,0.1,0c0,0,0,0,0.1,0c0,0,0,0,0,0.1
		c0,0,0,0.1,0.1,0.1c0,0,0.1,0,0.2,0c0,0,0,0,0.1,0c0,0,0,0,0,0c0,0,0,0,0,0.1c0,0,0,0,0,0C28.3,18.8,28.2,18.9,28.1,18.9z
		 M27.9,18.5C27.9,18.5,27.9,18.5,27.9,18.5C27.9,18.6,27.9,18.6,27.9,18.5C27.9,18.6,27.9,18.6,27.9,18.5c0,0,0,0.1,0.1,0.2
		c0.1,0,0.2,0,0.3,0c0,0,0,0,0,0c0,0,0,0,0,0c0,0,0,0,0,0c0,0,0,0,0,0c-0.1,0-0.2,0-0.2,0C27.9,18.7,27.9,18.6,27.9,18.5
		C27.9,18.6,27.9,18.6,27.9,18.5C27.9,18.5,27.9,18.5,27.9,18.5z"/>
</g>
<g>
	<path d="M27.7,21.2C27.7,21.2,27.7,21.1,27.7,21.2c-0.1-0.6-0.5-0.9-0.5-0.9c0,0,0-0.1,0-0.1c0,0,0.1,0,0.1,0
		C27.3,20.2,27.8,20.5,27.7,21.2C27.8,21.1,27.8,21.2,27.7,21.2C27.7,21.2,27.7,21.2,27.7,21.2z"/>
	<path d="M27.7,21.2C27.7,21.2,27.7,21.2,27.7,21.2c-0.1-0.6-0.5-0.9-0.5-0.9c0,0,0,0,0-0.1c0,0,0,0,0-0.1c0,0,0.1,0,0.1,0
		C27.4,20.2,27.8,20.5,27.7,21.2C27.8,21.2,27.8,21.2,27.7,21.2C27.8,21.2,27.7,21.2,27.7,21.2z M27.3,20.2
		C27.3,20.2,27.3,20.2,27.3,20.2C27.3,20.2,27.3,20.2,27.3,20.2C27.3,20.2,27.3,20.2,27.3,20.2c0,0,0.4,0.4,0.4,0.9c0,0,0,0,0,0l0,0
		c0,0,0,0,0,0C27.7,20.6,27.3,20.2,27.3,20.2C27.3,20.2,27.3,20.2,27.3,20.2z"/>
</g>
<g>
	<path d="M27.6,21.4L27.6,21.4C27.5,21.4,27.5,21.3,27.6,21.4c-0.1-0.6-0.5-0.9-0.5-0.9c0,0,0-0.1,0-0.1c0,0,0.1,0,0.1,0
		C27.2,20.4,27.6,20.7,27.6,21.4C27.6,21.3,27.6,21.4,27.6,21.4z"/>
	<path d="M27.6,21.4L27.6,21.4C27.5,21.4,27.5,21.4,27.6,21.4c-0.1-0.6-0.5-0.9-0.5-1c0,0,0-0.1,0-0.1c0,0,0.1,0,0.1,0
		C27.2,20.3,27.7,20.7,27.6,21.4C27.6,21.4,27.6,21.4,27.6,21.4z M27.1,20.4C27.1,20.4,27.1,20.4,27.1,20.4
		C27.1,20.4,27.1,20.4,27.1,20.4c0,0,0.4,0.4,0.4,1c0,0,0,0,0,0h0c0,0,0,0,0,0C27.6,20.7,27.2,20.4,27.1,20.4
		C27.1,20.4,27.1,20.4,27.1,20.4z"/>
</g>
<g>
	<path class="st1" d="M27.2,20.3c0,0-0.5-0.3-0.9-0.6c-0.4-0.2-1.4-0.9-1.8-1.2c-0.4-0.2-0.7-0.5-1.2-0.9l-0.2-0.1
		c-0.3-0.2-0.5-0.4-0.6-0.4c-0.1-0.1-0.1-0.1-0.2-0.1c-0.1-0.1-0.1-0.2-0.1-0.2c0,0,0-0.1,0.1-0.1c0,0,0.1,0,0.1,0.1
		c0,0,0,0.1,0.1,0.2c0,0,0.1,0.1,0.2,0.1c0.1,0.1,0.3,0.2,0.6,0.4l0.2,0.1c0.4,0.3,0.8,0.6,1.2,0.9c0.4,0.3,1.4,0.9,1.8,1.1
		C26.7,19.9,27.3,20.2,27.2,20.3L27.2,20.3z"/>
	<path class="st1" d="M27.2,20.4L27.2,20.4c0,0-0.6-0.3-1-0.6c-0.4-0.2-1.4-0.9-1.8-1.2c-0.4-0.2-0.7-0.5-1.2-0.9l-0.2-0.1
		c-0.3-0.2-0.5-0.4-0.6-0.4c-0.1-0.1-0.1-0.1-0.2-0.1c-0.1-0.1-0.1-0.3-0.1-0.3c0,0,0-0.1,0.1-0.1s0.1,0,0.1,0.1c0,0,0,0.1,0.1,0.1
		c0,0,0.1,0.1,0.2,0.1c0.1,0.1,0.3,0.2,0.6,0.4l0.2,0.1c0.4,0.3,0.8,0.6,1.2,0.9c0.4,0.3,1.4,0.9,1.8,1.1c0.4,0.2,0.9,0.5,0.9,0.5
		l0,0L27.2,20.4z M22.4,16.8C22.4,16.8,22.4,16.8,22.4,16.8c0,0,0,0.1,0.1,0.2c0,0,0.1,0.1,0.2,0.1c0.1,0.1,0.3,0.2,0.6,0.4l0.2,0.1
		c0.4,0.3,0.8,0.6,1.2,0.9c0.4,0.3,1.4,0.9,1.8,1.1c0.3,0.2,0.8,0.5,0.9,0.5l0,0c-0.1-0.1-0.6-0.3-0.9-0.5c-0.4-0.2-1.4-0.9-1.8-1.1
		c-0.3-0.2-0.7-0.5-1.2-0.9l-0.2-0.1c-0.3-0.2-0.5-0.4-0.6-0.4c-0.1-0.1-0.1-0.1-0.2-0.1C22.4,16.9,22.4,16.8,22.4,16.8
		C22.4,16.8,22.4,16.8,22.4,16.8z"/>
</g>
<path class="st0" d="M27.4,20.2c0.1-0.1,0.1-0.2,0.2-0.3c0,0,0,0,0.1-0.1l0,0c0,0-0.2-0.2-0.4-0.3c-0.1-0.1-0.5-0.3-0.8-0.5L26.3,19
	c-0.2-0.1-0.3-0.2-0.4-0.3c-0.2-0.1-0.5-0.4-0.8-0.7c-0.2-0.1-0.3-0.3-0.4-0.4c-0.3-0.2-1-0.7-1.3-0.8c-0.2-0.1-0.5-0.3-0.7-0.4
	c-0.1-0.1-0.3-0.1-0.3,0c0,0-0.1,0.1,0,0.2c0,0.1,0,0.1,0.1,0.2c0.3,0.2,0.5,0.4,0.8,0.5c0.3,0.2,0.5,0.6,0.8,0.9
	c0.3,0.3,0.7,0.5,1,0.6c0.2,0.1,0.4,0.1,0.6,0.2c0.1,0,0.5,0.3,0.5,0.3l0.1-0.1l0,0.2c0.3,0.2,0.7,0.4,0.8,0.5
	C27.2,20,27.3,20.1,27.4,20.2C27.3,20.2,27.4,20.2,27.4,20.2z"/>
<g>
	<path class="st2" d="M20.8,18.9c-0.2-0.1-0.4-0.1-0.5,0c-0.2,0.1-0.2,0.4-0.2,0.4c0,0,0,0.1,0.1,0.1c0,0,0,0,0,0c0,0,0,0,0.1,0
		c0,0,0,0,0-0.1c0,0,0-0.2,0.1-0.2c0.1-0.1,0.2,0,0.4,0c0,0,0.1,0,0.1-0.1C20.9,18.9,20.9,18.9,20.8,18.9z"/>
	<path class="st2" d="M20.1,19.5C20.1,19.5,20.1,19.5,20.1,19.5c-0.1-0.1-0.1-0.1-0.1-0.1c0,0,0,0-0.1,0c0,0,0,0,0,0.1
		c0,0,0.1,0.4,0.3,0.5c0,0,0,0,0,0c0,0,0.1,0,0.1-0.1c0,0,0-0.1,0-0.1C20.2,19.8,20.1,19.5,20.1,19.5z"/>
</g>
<g>
	<path d="M21.4,19.4C21.4,19.4,21.3,19.3,21.4,19.4c-0.1-0.1,0-0.1,0-0.1l0.3,0c0,0,0.1,0,0.1,0c0,0,0,0.1,0,0.1L21.4,19.4
		C21.4,19.4,21.4,19.4,21.4,19.4z"/>
	<path d="M21.4,19.4C21.3,19.4,21.3,19.4,21.4,19.4c-0.1-0.1-0.1-0.1-0.1-0.1c0,0,0,0,0.1,0l0.3,0c0,0,0.1,0,0.1,0.1c0,0,0,0,0,0.1
		c0,0,0,0-0.1,0L21.4,19.4C21.4,19.4,21.4,19.4,21.4,19.4z M21.7,19.3L21.7,19.3l-0.3,0c0,0,0,0,0,0c0,0,0,0,0,0c0,0,0,0,0,0l0,0
		L21.7,19.3C21.7,19.3,21.7,19.3,21.7,19.3C21.7,19.3,21.7,19.3,21.7,19.3C21.7,19.3,21.7,19.3,21.7,19.3z"/>
</g>
<g>
	<path d="M21.7,19.6h-0.4c0,0-0.1,0-0.1-0.1c0,0,0-0.1,0.1-0.1h0.4C21.7,19.5,21.8,19.5,21.7,19.6C21.8,19.6,21.7,19.6,21.7,19.6z"
		/>
	<path d="M21.7,19.6h-0.4c0,0-0.1,0-0.1-0.1s0-0.1,0.1-0.1h0.4C21.8,19.5,21.8,19.5,21.7,19.6C21.8,19.6,21.8,19.6,21.7,19.6z
		 M21.4,19.5C21.4,19.5,21.3,19.6,21.4,19.5C21.3,19.6,21.4,19.6,21.4,19.5l0.4,0c0,0,0,0,0,0s0,0,0,0H21.4z"/>
</g>
<g>
	<path d="M21.6,20C21.6,20,21.6,20,21.6,20l-0.3-0.1c0,0,0,0,0-0.1c0,0,0,0,0.1,0l0.3,0.1C21.6,19.9,21.7,19.9,21.6,20
		C21.7,19.9,21.6,20,21.6,20z"/>
	<path d="M21.6,20C21.6,20,21.6,20,21.6,20l-0.3-0.1c0,0-0.1-0.1-0.1-0.1c0,0,0.1-0.1,0.1-0.1l0.3,0.1C21.7,19.8,21.7,19.9,21.6,20
		C21.7,20,21.6,20,21.6,20z M21.3,19.8C21.3,19.8,21.3,19.8,21.3,19.8C21.3,19.8,21.3,19.9,21.3,19.8l0.3,0.1c0,0,0,0,0,0
		c0,0,0,0,0,0c0,0,0,0,0,0L21.3,19.8C21.3,19.8,21.3,19.8,21.3,19.8z"/>
</g>
<g>
	<circle class="st2" cx="20.9" cy="19.4" r="0.1"/>
	<circle class="st2" cx="20.8" cy="20.1" r="0.1"/>
</g>
<path class="st0" d="M30.7,3.2c-0.2-0.1-0.3-0.1-0.5-0.2C30.2,3,30,3,29.9,2.9c-0.1,0-0.1-0.1-0.2-0.1c-0.3-0.1-0.5,0-0.7,0.2
	c0,0.1-0.1,0.1-0.1,0.2c-0.1,0.2-0.2,0.4-0.5,0.9c-0.4,0.8-0.7,1.4-1,1.9c-0.3,0.5-0.6,1.1-1,1.9c-0.3,0.6-0.6,1.1-0.8,1.5l0,0.1
	c-0.1,0.2-0.2,0.3-0.2,0.4c-0.2,0.4-0.5,1-0.7,1.6c-0.1,0.3-0.3,0.6-0.5,0.9l0,0c-0.1,0.2-0.2,0.3-0.3,0.5c-0.1,0.1-0.2,0.3-0.3,0.5
	l0,0c-0.2,0.3-0.4,0.7-0.5,0.9c-0.2,0.4-0.8,1.6-1.1,2l0,0c0,0.1,0,0.1,0,0.2c0,0.1,0.1,0.1,0.1,0.1c0,0,0.1,0,0.1,0
	c0.1,0,0.2,0,0.2-0.1l0,0c0.3-0.5,0.9-1.7,1.1-2.1c0.1-0.3,0.3-0.6,0.5-0.9l0-0.1c0.1-0.2,0.2-0.4,0.3-0.5c0.1-0.1,0.2-0.3,0.3-0.5
	c0.2-0.3,0.4-0.6,0.5-0.9c0.2-0.5,0.5-1.1,0.7-1.5c0.1-0.1,0.2-0.3,0.3-0.5l0,0c0.2-0.4,0.5-0.9,0.8-1.5c0.4-0.8,0.7-1.4,1-1.9
	c0.3-0.5,0.6-1.1,1-1.9c0.2-0.5,0.4-0.7,0.5-0.9l0-0.1c0-0.1,0.1-0.1,0.1-0.2c0,0,0,0,0,0c0,0,0,0,0,0c0,0,0.1,0.1,0.2,0.1
	c0.1,0.1,0.3,0.2,0.5,0.2c0.2,0,0.3,0.1,0.3,0.1c0.1,0,0.1,0,0.2,0c0.1,0,0.1-0.1,0.1-0.1c0-0.1,0-0.1,0-0.2
	C30.8,3.3,30.8,3.3,30.7,3.2z"/>
<path class="st2" d="M24.4,15.5c0,0-0.1-0.1-0.1-0.1c-0.1,0-0.1,0-0.1,0.1c0,0-0.1,0.1-0.1,0.1c0,0,0,0.1-0.1,0.1
	c-0.1,0.2-0.5,0.8-0.5,0.8c0,0,0,0,0,0c0,0.1,0,0.2,0,0.2c0,0,0.1,0,0.1,0c0,0,0,0,0.1,0c0.1,0,0.1-0.1,0.2-0.2c0,0,0-0.1,0.1-0.1
	c0.1-0.2,0.4-0.6,0.4-0.7C24.4,15.7,24.4,15.6,24.4,15.5z"/>
<path class="st2" d="M25.3,16.2c0,0,0-0.1-0.1-0.1c-0.1,0-0.1,0.1-0.2,0.2c-0.1,0.2-0.5,0.9-0.5,0.9c0,0,0,0,0,0.1
	c0,0.1,0.1,0.1,0.1,0.1c0,0,0,0,0,0c0,0,0,0,0,0c0,0,0.1-0.1,0.1-0.2c0.1-0.1,0.5-0.7,0.5-0.7c0,0,0,0,0,0
	C25.3,16.3,25.3,16.3,25.3,16.2z"/>
<g>
	<path class="st0" d="M28.6,17.4c-0.3-0.2-1-0.6-1.4-0.7c-0.3-0.1-0.7-0.4-1-0.7l-0.1,0c-0.1-0.1-0.2-0.1-0.3-0.2
		c-0.3-0.2-1.1-0.7-1.5-0.9c-0.3-0.2-0.9-0.5-0.9-0.5c0,0-0.1,0-0.2,0c-0.1,0-0.1,0-0.1,0.1c0,0,0,0.1,0,0.2c0,0.1,0,0.1,0.1,0.1
		c0.2,0.1,0.6,0.4,0.9,0.5c0.3,0.2,1.1,0.7,1.4,0.9c0.1,0.1,0.2,0.1,0.3,0.2c0.3,0.2,0.8,0.6,1.2,0.7c0.4,0.2,1.1,0.6,1.4,0.7
		c0,0,0,0,0,0l0.2,0.1l0-0.2c0-0.1,0-0.1,0-0.2L28.6,17.4L28.6,17.4z"/>
	<path class="st0" d="M40.3,24.9L40.3,24.9c-0.1-0.2-0.2-0.3-0.3-0.3c-0.1,0-0.2-0.1-0.4-0.2c-0.2-0.1-0.3-0.2-0.4-0.3
		c-0.2-0.3-0.4-0.3-0.6-0.3c-0.1-0.1-0.2-0.1-0.4-0.2c-0.1-0.1-0.3-0.2-0.5-0.3c-0.1-0.1-0.2-0.2-0.3-0.2c-0.2-0.1-0.7-0.4-1-0.6
		l-0.2-0.1c-0.1,0-0.1-0.1-0.2-0.1c-0.2-0.1-0.7-0.4-0.7-0.5c-0.1-0.2-0.5-0.5-0.6-0.6L34.3,21c-0.2-0.1-0.5-0.3-0.7-0.4
		c-0.3-0.1-0.5-0.3-1-0.6l-0.1,0c-0.3-0.2-0.9-0.6-1.3-0.9c-0.3-0.2-0.5-0.3-0.6-0.4c-0.2-0.1-0.7-0.4-1-0.7l0,0
		c-0.2-0.1-0.3-0.2-0.4-0.2c-0.1-0.1-0.2-0.1-0.3-0.1l-0.2-0.1l0,0.2c0,0.1,0,0.1,0,0.2l0,0.1l0.1,0c0,0,0.1,0,0.1,0.1
		c0.1,0,0.2,0.1,0.3,0.2l0.2,0.1c0.4,0.2,0.9,0.5,1,0.6c0.1,0.1,0.3,0.2,0.6,0.4l0.1,0.1c0.4,0.3,1,0.6,1.2,0.8l0.1,0.1
		c0.5,0.3,0.7,0.5,1,0.7c0.2,0.1,0.5,0.3,0.7,0.4c0,0,0.1,0.1,0.1,0.1c0.1,0.1,0.4,0.3,0.5,0.5c0.1,0.2,0.4,0.3,0.9,0.6
		c0.1,0,0.2,0.1,0.2,0.1l0.2,0.1c0.3,0.2,0.8,0.5,1,0.6c0.1,0.1,0.2,0.1,0.3,0.2c0.2,0.1,0.4,0.3,0.6,0.3c0.2,0.1,0.4,0.2,0.4,0.2
		c0.1,0.1,0.2,0.1,0.2,0c0,0,0.1,0,0.1,0.1c0.1,0.2,0.4,0.4,0.6,0.5c0.2,0.1,0.3,0.2,0.4,0.2c0,0,0.1,0.1,0.2,0.2
		c0,0.1,0.1,0.1,0.2,0.1c0,0,0.1,0,0.1,0c0,0,0.1-0.1,0.1-0.1S40.3,24.9,40.3,24.9z"/>
</g>
<g>
	<path d="M39.2,27.4C39.2,27.4,39.1,27.4,39.2,27.4C39.1,27.4,39.1,27.4,39.2,27.4c0-0.1,0.1-0.2,0.4-0.5c0.3-0.3,0.6-0.4,0.9-0.5
		c0.1,0,0.1-0.1,0.2-0.1c0.3-0.2,0.4-0.2,0.3-0.6c0-0.2-0.1-0.3-0.2-0.3c-0.1,0-0.1,0-0.1,0c-0.1,0-0.4,0.1-0.6,0.3
		c-0.2,0.1-0.4,0.3-0.7,0.5C39,26.4,38.5,27,38.5,27c0,0-0.1,0-0.1,0c0,0,0-0.1,0-0.1c0,0,0.5-0.6,0.8-0.9c0.3-0.3,0.5-0.4,0.7-0.6
		c0.2-0.1,0.5-0.3,0.6-0.3c0,0,0.1,0,0.2,0c0.1,0.1,0.2,0.2,0.2,0.4c0.1,0.4,0,0.5-0.4,0.7c-0.1,0-0.1,0.1-0.2,0.1
		c-0.3,0.1-0.6,0.3-0.8,0.5C39.3,27.3,39.2,27.4,39.2,27.4C39.2,27.4,39.2,27.4,39.2,27.4z"/>
	<path d="M39.2,27.5C39.1,27.5,39.1,27.5,39.2,27.5C39.1,27.4,39.1,27.4,39.2,27.5c-0.1-0.1-0.1-0.1-0.1-0.2c0,0,0.1-0.1,0.4-0.4
		c0.3-0.3,0.6-0.4,0.9-0.6c0.1,0,0.1-0.1,0.2-0.1c0.3-0.2,0.4-0.2,0.3-0.5c0-0.2-0.1-0.3-0.2-0.3c0,0-0.1,0-0.1,0
		c-0.1,0-0.4,0.1-0.6,0.3c-0.2,0.1-0.4,0.3-0.7,0.5c-0.3,0.3-0.8,0.8-0.8,0.8c0,0,0,0-0.1,0c0,0,0,0-0.1,0c0,0,0,0,0-0.1
		c0,0,0,0,0-0.1c0,0,0.5-0.6,0.8-0.9c0.3-0.3,0.5-0.4,0.7-0.6c0.2-0.2,0.5-0.3,0.6-0.3c0,0,0.1,0,0.2,0c0.1,0.1,0.2,0.2,0.2,0.4
		c0.1,0.4,0,0.5-0.4,0.7c-0.1,0-0.1,0.1-0.2,0.1c-0.3,0.1-0.6,0.3-0.8,0.5C39.3,27.3,39.2,27.4,39.2,27.5
		C39.2,27.5,39.2,27.5,39.2,27.5z M40.6,25.3C40.7,25.3,40.7,25.3,40.6,25.3c0.2,0.1,0.2,0.2,0.3,0.4c0.1,0.4,0,0.4-0.3,0.6
		c-0.1,0-0.1,0.1-0.2,0.1c-0.3,0.1-0.6,0.3-0.8,0.5c-0.3,0.3-0.4,0.4-0.4,0.4c0,0,0,0,0,0c0,0,0,0,0,0c0,0,0,0,0,0c0,0,0,0,0,0
		c0,0,0.1-0.1,0.4-0.4c0.3-0.3,0.5-0.4,0.8-0.5c0.1,0,0.1-0.1,0.2-0.1c0.4-0.2,0.4-0.2,0.3-0.6c0-0.2-0.1-0.3-0.2-0.4
		C40.7,25.3,40.6,25.3,40.6,25.3c-0.2,0-0.5,0.1-0.7,0.3c-0.2,0.1-0.4,0.3-0.7,0.6c-0.3,0.3-0.8,0.9-0.8,0.9c0,0,0,0,0,0
		c0,0,0,0,0,0c0,0,0,0,0,0c0,0,0,0,0,0c0,0,0.5-0.6,0.8-0.9c0.3-0.3,0.5-0.4,0.7-0.6C40.2,25.5,40.5,25.4,40.6,25.3
		C40.6,25.3,40.6,25.3,40.6,25.3z"/>
</g>
<g>
	<path d="M40.9,26.3C40.9,26.3,40.8,26.3,40.9,26.3c-0.4-0.2-0.4-0.9-0.4-0.9c0,0,0-0.1,0-0.1c0,0,0.1,0,0.1,0
		C40.5,25.4,40.6,26,40.9,26.3C40.9,26.2,40.9,26.2,40.9,26.3C40.9,26.2,40.9,26.3,40.9,26.3z"/>
	<path d="M40.9,26.3C40.8,26.3,40.8,26.3,40.9,26.3c-0.2-0.1-0.3-0.3-0.4-0.5c-0.1-0.2-0.1-0.4-0.1-0.4c0,0,0,0,0-0.1c0,0,0,0,0.1,0
		c0,0,0,0,0.1,0c0,0,0,0,0,0.1c0,0,0.1,0.6,0.4,0.8C40.9,26.2,41,26.2,40.9,26.3C40.9,26.3,40.9,26.3,40.9,26.3z M40.5,25.3
		C40.5,25.3,40.5,25.3,40.5,25.3C40.5,25.3,40.5,25.3,40.5,25.3C40.4,25.4,40.4,25.4,40.5,25.3c0,0,0,0.7,0.4,0.9c0,0,0,0,0,0
		c0,0,0,0,0,0C40.5,26,40.5,25.4,40.5,25.3C40.5,25.4,40.5,25.4,40.5,25.3C40.5,25.3,40.5,25.3,40.5,25.3z"/>
</g>
<g>
	<path d="M40.1,26.7C40,26.7,40,26.6,40.1,26.7c-0.2-0.6-0.6-0.6-0.6-0.6c0,0,0,0,0-0.1c0,0,0,0,0.1,0C39.5,25.9,39.9,26,40.1,26.7
		C40.1,26.6,40.1,26.6,40.1,26.7C40.1,26.7,40.1,26.7,40.1,26.7z"/>
	<path d="M40.1,26.7C40,26.7,40,26.7,40.1,26.7c-0.3-0.6-0.6-0.6-0.6-0.6c0,0,0,0-0.1,0c0,0,0,0,0-0.1c0,0,0,0,0-0.1c0,0,0,0,0.1,0
		c0,0,0.4,0.1,0.6,0.7C40.2,26.6,40.1,26.6,40.1,26.7C40.1,26.7,40.1,26.7,40.1,26.7C40.1,26.7,40.1,26.7,40.1,26.7z M39.5,25.9
		C39.5,25.9,39.5,25.9,39.5,25.9C39.5,25.9,39.5,26,39.5,25.9C39.5,26,39.5,26,39.5,25.9C39.5,26,39.5,26,39.5,25.9
		c0,0,0.4,0.1,0.6,0.7c0,0,0,0,0,0c0,0,0,0,0,0c0,0,0,0,0,0C39.9,26,39.5,25.9,39.5,25.9C39.5,25.9,39.5,25.9,39.5,25.9z"/>
</g>
<g>
	<path class="st2" d="M38.5,26.4C38.5,26.4,38.5,26.4,38.5,26.4c-0.5-0.2-0.8-0.7-0.8-0.7c0,0,0-0.1,0-0.1c0,0,0.1,0,0.1,0
		c0,0,0.3,0.5,0.8,0.6C38.6,26.3,38.6,26.3,38.5,26.4C38.6,26.4,38.6,26.4,38.5,26.4z"/>
	<path class="st2" d="M38.5,26.4C38.5,26.4,38.5,26.4,38.5,26.4c-0.5-0.2-0.8-0.7-0.9-0.7c0,0,0-0.1,0-0.1c0,0,0.1,0,0.1,0
		c0,0,0.3,0.4,0.7,0.6C38.6,26.3,38.6,26.3,38.5,26.4C38.6,26.4,38.6,26.4,38.5,26.4z M37.8,25.7C37.8,25.7,37.7,25.7,37.8,25.7
		C37.7,25.7,37.7,25.7,37.8,25.7c0,0,0.3,0.5,0.8,0.7c0,0,0,0,0,0c0,0,0,0,0,0C38.1,26.1,37.8,25.7,37.8,25.7
		C37.8,25.7,37.8,25.7,37.8,25.7z"/>
</g>
<g>
	<path d="M34.4,21.2C34.3,21.2,34.3,21.2,34.4,21.2c0,0-0.4-0.2-0.7-0.4c-0.2-0.1-0.6-0.3-0.9-0.5c-0.2-0.1-0.4-0.3-0.5-0.4
		c-0.1-0.1-0.1-0.1-0.2-0.1c-0.1-0.1-0.4-0.3-0.7-0.5c-0.1-0.1-0.2-0.1-0.3-0.2c-0.1,0-0.1,0-0.2-0.1c-0.1-0.1-0.6-0.4-0.6-0.4
		c0,0,0-0.1,0-0.1c0,0,0.1,0,0.1,0c0,0,0.5,0.4,0.6,0.4c0,0,0.1,0,0.2,0.1c0.1,0,0.2,0.1,0.4,0.2c0.3,0.2,0.6,0.4,0.7,0.5
		c0.1,0,0.1,0.1,0.2,0.2c0.2,0.1,0.3,0.3,0.5,0.4c0.3,0.1,0.6,0.4,0.9,0.5C34,20.9,34.4,21.1,34.4,21.2
		C34.4,21.2,34.4,21.2,34.4,21.2C34.4,21.2,34.4,21.2,34.4,21.2z"/>
	<path d="M34.4,21.3C34.3,21.3,34.3,21.3,34.4,21.3c-0.1,0-0.4-0.2-0.7-0.4c-0.3-0.1-0.6-0.3-0.9-0.5c-0.2-0.1-0.4-0.3-0.5-0.4l0,0
		c-0.1-0.1-0.1-0.1-0.2-0.1c-0.1-0.1-0.4-0.3-0.7-0.5c-0.1-0.1-0.2-0.1-0.3-0.2c-0.1,0-0.1,0-0.2-0.1c-0.1-0.1-0.6-0.4-0.6-0.4
		c0,0,0,0,0-0.1c0,0,0,0,0-0.1c0,0,0,0,0.1,0c0,0,0,0,0.1,0c0.1,0,0.5,0.4,0.6,0.4c0,0,0.1,0,0.1,0.1c0.1,0,0.2,0.1,0.4,0.2
		c0.3,0.2,0.6,0.4,0.7,0.5c0.1,0,0.1,0.1,0.2,0.2c0.2,0.1,0.3,0.3,0.5,0.4c0.3,0.1,0.6,0.4,0.9,0.5c0.3,0.1,0.7,0.4,0.7,0.4
		C34.4,21.1,34.5,21.2,34.4,21.3C34.4,21.3,34.4,21.3,34.4,21.3z M30.3,18.5C30.3,18.5,30.3,18.5,30.3,18.5
		C30.3,18.5,30.3,18.5,30.3,18.5C30.3,18.5,30.3,18.6,30.3,18.5C30.3,18.6,30.3,18.6,30.3,18.5c0,0,0.5,0.4,0.6,0.5
		c0.1,0,0.1,0.1,0.2,0.1c0.1,0,0.2,0.1,0.3,0.2c0.3,0.2,0.6,0.4,0.7,0.5c0.1,0,0.1,0.1,0.2,0.1l0,0c0.2,0.1,0.3,0.3,0.5,0.4
		c0.3,0.1,0.6,0.4,0.9,0.5c0.3,0.1,0.6,0.4,0.7,0.4c0,0,0,0,0,0c0,0,0,0,0,0c0,0-0.4-0.2-0.7-0.4c-0.2-0.1-0.6-0.3-0.9-0.5
		c-0.2-0.1-0.3-0.3-0.5-0.4c-0.1-0.1-0.1-0.1-0.2-0.2c-0.1-0.1-0.4-0.3-0.7-0.5c-0.1-0.1-0.3-0.1-0.4-0.2C31,19,31,19,30.9,19
		C30.8,18.9,30.3,18.5,30.3,18.5C30.3,18.5,30.3,18.5,30.3,18.5z"/>
</g>
<g>
	<path class="st2" d="M33,21.7C33,21.7,33,21.7,33,21.7c-0.1,0-0.7-0.3-0.8-0.5c-0.2-0.1-0.5-0.4-0.6-0.6c-0.1-0.1-0.3-0.2-0.5-0.3
		c-0.1,0-0.2-0.1-0.2-0.1c-0.3-0.1-1.1-0.8-1.1-0.9c0,0,0-0.1,0-0.1c0,0,0.1,0,0.1,0c0,0,0.8,0.7,1.1,0.9c0.1,0,0.2,0.1,0.2,0.1
		c0.2,0.1,0.5,0.2,0.5,0.3c0.1,0.1,0.4,0.4,0.6,0.6C32.4,21.3,33,21.6,33,21.7C33,21.6,33.1,21.6,33,21.7C33,21.7,33,21.7,33,21.7z"
		/>
	<path class="st2" d="M33,21.7C33,21.7,33,21.7,33,21.7c-0.2-0.1-0.7-0.4-0.8-0.5c-0.2-0.1-0.5-0.4-0.6-0.6
		c-0.1-0.1-0.3-0.2-0.5-0.3l0,0c-0.1,0-0.2-0.1-0.2-0.1c-0.3-0.1-1-0.8-1.1-0.9c0,0,0,0,0-0.1c0,0,0,0,0-0.1c0,0,0,0,0.1,0
		c0,0,0,0,0.1,0l0,0c0.1,0.1,0.8,0.7,1.1,0.9c0.1,0,0.1,0.1,0.2,0.1c0.2,0.1,0.5,0.2,0.6,0.4c0.1,0.1,0.4,0.4,0.6,0.5
		c0.1,0.1,0.8,0.4,0.8,0.4c0,0,0,0,0,0.1C33.1,21.6,33.1,21.7,33,21.7C33.1,21.7,33,21.7,33,21.7z M29.8,19.3
		C29.8,19.3,29.8,19.3,29.8,19.3C29.8,19.3,29.8,19.3,29.8,19.3C29.8,19.3,29.8,19.3,29.8,19.3C29.8,19.3,29.8,19.3,29.8,19.3
		c0.1,0.1,0.8,0.8,1.1,0.9c0.1,0,0.1,0.1,0.2,0.1l0,0c0.2,0.1,0.4,0.2,0.5,0.3c0.1,0.1,0.4,0.5,0.6,0.6c0.1,0.1,0.7,0.4,0.8,0.4
		c0,0,0,0,0,0c0,0,0,0,0,0c0,0,0,0,0,0c0,0,0,0,0,0c0,0-0.6-0.3-0.8-0.4c-0.1-0.1-0.5-0.4-0.6-0.6c-0.1-0.1-0.3-0.2-0.5-0.3
		c-0.1,0-0.2-0.1-0.2-0.1C30.6,20,29.9,19.4,29.8,19.3L29.8,19.3C29.8,19.3,29.8,19.3,29.8,19.3z"/>
</g>
<g>
	<path class="st2" d="M32.3,22.3C32.3,22.3,32.3,22.3,32.3,22.3c0,0-0.3-0.2-0.5-0.3c-0.2-0.1-0.5-0.3-0.8-0.5l-0.2-0.2
		c-0.2-0.2-0.5-0.4-0.6-0.5c-0.2-0.2-0.4-0.3-0.6-0.4c-0.2-0.1-0.5-0.3-0.5-0.3c0,0,0-0.1,0-0.1c0,0,0.1,0,0.1,0
		c0,0,0.2,0.2,0.5,0.3c0.2,0.1,0.4,0.2,0.6,0.4c0.1,0.1,0.4,0.3,0.6,0.5l0.2,0.2c0.3,0.2,0.6,0.4,0.8,0.5C32,22,32.3,22.2,32.3,22.3
		C32.4,22.2,32.4,22.2,32.3,22.3C32.4,22.3,32.3,22.3,32.3,22.3z"/>
	<path class="st2" d="M32.3,22.3C32.3,22.3,32.3,22.3,32.3,22.3c0,0-0.4-0.2-0.5-0.3c-0.2-0.1-0.5-0.3-0.8-0.5l-0.2-0.2
		c-0.2-0.2-0.5-0.4-0.6-0.5c-0.2-0.2-0.4-0.3-0.6-0.4c-0.2-0.1-0.5-0.3-0.5-0.3c0,0,0,0,0-0.1s0,0,0-0.1c0,0,0.1,0,0.1,0
		c0,0,0.2,0.2,0.4,0.3c0.2,0.1,0.4,0.2,0.6,0.4c0.1,0.1,0.4,0.3,0.6,0.5l0.2,0.2c0.3,0.2,0.6,0.4,0.8,0.5c0.2,0.1,0.5,0.3,0.5,0.3
		c0,0,0,0,0,0.1C32.4,22.2,32.4,22.2,32.3,22.3C32.4,22.3,32.4,22.3,32.3,22.3z M29.1,20C29.1,20,29.1,20,29.1,20
		C29.1,20.1,29.1,20.1,29.1,20C29.1,20.1,29.1,20.1,29.1,20c0,0,0.2,0.3,0.5,0.4c0.2,0.1,0.4,0.2,0.6,0.4c0.1,0.1,0.4,0.3,0.6,0.5
		l0.2,0.2c0.3,0.2,0.6,0.4,0.8,0.5c0.2,0.1,0.5,0.3,0.5,0.3c0,0,0,0,0,0c0,0,0,0,0,0c0,0,0,0,0,0c0,0-0.3-0.2-0.5-0.3
		c-0.2-0.1-0.5-0.3-0.8-0.5l-0.2-0.2c-0.2-0.2-0.5-0.4-0.6-0.5c-0.2-0.2-0.4-0.3-0.6-0.4C29.4,20.3,29.1,20.1,29.1,20
		C29.1,20,29.1,20,29.1,20z"/>
</g>
<g>
	<path class="st2" d="M35.2,22.5C35.2,22.5,35.2,22.5,35.2,22.5c-0.1-0.1-0.4-0.3-0.5-0.3c-0.2,0-0.3-0.2-0.3-0.3c0,0,0-0.1,0-0.1
		c0,0,0.1,0,0.1,0c0,0,0.1,0.2,0.2,0.2C34.9,22.1,35.2,22.4,35.2,22.5C35.3,22.5,35.3,22.5,35.2,22.5C35.3,22.5,35.3,22.5,35.2,22.5
		z"/>
	<path class="st2" d="M35.2,22.6C35.2,22.6,35.2,22.6,35.2,22.6c-0.2-0.1-0.4-0.3-0.5-0.3c-0.2-0.1-0.3-0.3-0.3-0.3c0,0,0,0,0-0.1
		c0,0,0,0,0-0.1c0,0,0.1,0,0.1,0c0,0,0.1,0.2,0.2,0.2c0.2,0,0.5,0.3,0.5,0.4C35.3,22.4,35.3,22.5,35.2,22.6
		C35.3,22.5,35.3,22.5,35.2,22.6C35.3,22.6,35.3,22.6,35.2,22.6z M34.5,21.9C34.5,21.9,34.5,21.9,34.5,21.9
		C34.5,21.9,34.5,21.9,34.5,21.9C34.5,21.9,34.5,21.9,34.5,21.9c0,0,0.1,0.2,0.3,0.3c0.1,0,0.5,0.3,0.5,0.3c0,0,0,0,0,0c0,0,0,0,0,0
		c0,0,0,0,0,0c0,0,0,0,0,0c-0.1-0.1-0.4-0.3-0.5-0.3C34.6,22.1,34.5,21.9,34.5,21.9C34.5,21.9,34.5,21.9,34.5,21.9z"/>
</g>
<path class="st2" d="M33.3,22.4c-0.1-0.1-0.3-0.1-0.4-0.1c-0.1,0-0.1,0.1-0.1,0.2c0,0.2,0.1,0.4,0.1,0.4c0.1,0.1,0.2,0.2,0.3,0.2
	c0,0,0,0,0,0c0.1,0,0.2-0.1,0.3-0.1c0-0.1,0.1-0.1,0.1-0.2C33.5,22.6,33.4,22.5,33.3,22.4z"/>
<path class="st2" d="M34.9,23.5c0-0.1-0.1-0.2-0.2-0.2c-0.1,0-0.3-0.1-0.4,0.1c-0.1,0.1-0.1,0.3-0.1,0.4l0,0c0,0,0,0,0,0l0,0l0,0
	c0,0.2,0.2,0.2,0.2,0.3c0,0,0,0,0.1,0c0.1,0,0.3-0.1,0.3-0.2C34.9,23.7,34.9,23.6,34.9,23.5z"/>
<path class="st2" d="M36.3,24.6c-0.1-0.2-0.2-0.3-0.4-0.4c-0.1,0-0.1,0-0.2,0c-0.1,0.1-0.2,0.2-0.2,0.4c0,0.2,0.1,0.4,0.4,0.4
	c0,0,0,0,0,0c0.2,0,0.4-0.1,0.4-0.3C36.4,24.7,36.4,24.6,36.3,24.6z"/>
<path class="st2" d="M42.6,27.9c-0.1-0.2-0.2-0.3-0.4-0.4c-0.1,0-0.1,0-0.2,0c-0.1,0.1-0.2,0.2-0.2,0.4c0,0.2,0.1,0.4,0.4,0.4
	c0,0,0,0,0,0c0.2,0,0.4-0.1,0.4-0.3C42.7,28,42.6,27.9,42.6,27.9z"/>
<path class="st2" d="M36.1,23.1c-0.2,0-0.3,0.1-0.3,0.3c0,0.2,0.1,0.3,0.3,0.3c0.2,0,0.3-0.1,0.3-0.3C36.3,23.3,36.2,23.1,36.1,23.1
	z"/>
<path class="st2" d="M40.8,26c-0.2,0-0.3,0.1-0.3,0.3c0,0.2,0.1,0.3,0.3,0.3c0.2,0,0.3-0.1,0.3-0.3C41.1,26.1,41,26,40.8,26z"/>
<path class="st2" d="M37,23.6c-0.1,0-0.3,0.1-0.3,0.3s0.1,0.3,0.3,0.3c0.1,0,0.3-0.1,0.3-0.3S37.2,23.6,37,23.6z"/>
<path class="st2" d="M27.1,17.7c0,0-0.1-0.1-0.2-0.2c0,0,0.1-0.1,0.1-0.2c0,0,0-0.1-0.1-0.1c-0.1,0-0.1,0-0.2,0c0,0-0.1,0-0.1,0.1
	c-0.1,0-0.1-0.1-0.2-0.1c0,0,0,0,0,0l-0.1,0.1c0,0-0.1,0-0.1,0c0,0-0.1,0-0.1,0c-0.3,0.2-0.3,0.3-0.3,0.3c0,0.1,0,0.1,0.1,0.1
	c0,0,0,0-0.1,0.1c0,0,0,0,0,0c0,0,0,0,0,0c0,0,0,0,0,0c-0.1,0.1-0.2,0.2-0.2,0.3c0,0,0,0.1,0.1,0.1c0.3,0.1,0.5,0.4,0.5,0.4
	c0,0,0,0,0,0c0,0,0.1,0.1,0.1,0.1c0,0,0,0,0,0c0,0,0,0,0,0c0,0,0,0,0,0c0,0,0,0,0,0c0,0,0.1,0,0.1-0.1c0,0,0-0.1,0.1-0.1
	c0.1-0.1,0.1-0.2,0.2-0.2C27.1,17.8,27.1,17.7,27.1,17.7z"/>
<path class="st2" d="M45.1,28.8c0,0-0.1-0.1-0.2-0.2c0,0,0.1-0.1,0.1-0.2c0,0,0-0.1-0.1-0.1c-0.1,0-0.1,0-0.2,0c0,0-0.1,0-0.1,0.1
	c-0.1,0-0.1-0.1-0.2-0.1c0,0,0,0,0,0l-0.1,0.1c0,0-0.1,0-0.1,0c0,0-0.1,0-0.1,0c-0.3,0.2-0.3,0.3-0.3,0.3c0,0.1,0,0.1,0.1,0.1
	c0,0,0,0-0.1,0.1c0,0,0,0,0,0l0,0l0,0c-0.1,0.1-0.2,0.2-0.2,0.3c0,0,0,0.1,0.1,0.1c0.3,0.1,0.5,0.4,0.5,0.4c0,0,0,0,0,0
	c0,0,0.1,0.1,0.1,0.1c0,0,0,0,0,0c0,0,0,0,0,0c0,0,0,0,0,0c0,0,0,0,0,0c0,0,0.1,0,0.1-0.1c0,0,0-0.1,0.1-0.1
	c0.1-0.1,0.1-0.2,0.2-0.2C45.2,29,45.1,28.8,45.1,28.8z"/>
<path class="st0" d="M47.7,29.3l-0.2-0.1c-0.6-0.4-1.8-1.1-2.1-1.3c-0.1-0.1-0.4-0.3-0.7-0.5l-0.1,0c-0.7-0.5-1.5-1-2-1.2
	c-0.1-0.1-0.2-0.1-0.4-0.2c-0.4-0.2-0.9-0.5-1.3-0.7c-0.2-0.1-0.3-0.2-0.5-0.3c-0.2-0.1-0.3-0.2-0.5-0.3c0,0-0.1,0-0.1,0
	c0,0,0.1,0,0.1,0.1c-0.1,0-0.1,0-0.2,0.1c-0.1,0-0.1,0.1-0.1,0.1c0,0.1,0.1,0.1,0.2,0.2c0.1,0,0.2,0.1,0.2,0.1c0,0,0,0,0.1,0
	c0.3,0.2,0.7,0.4,1,0.6c0.4,0.2,0.8,0.4,1.2,0.6c0.5,0.2,1.3,0.8,1.9,1.2l0,0c0.3,0.2,0.6,0.4,0.8,0.5c0.5,0.3,2.3,1.4,2.3,1.4
	c0,0,0.1,0,0.1,0c0.1,0,0.2,0,0.2-0.1c0-0.1,0-0.1,0-0.2C47.8,29.4,47.8,29.3,47.7,29.3z"/>
<g>
	<path class="st1" d="M46.6,27.4C46.6,27.4,46.6,27.4,46.6,27.4C46.6,27.4,46.6,27.4,46.6,27.4c0-0.3,0.8-1.9,1.3-2.6
		c0.4-0.6,1-1.6,1.5-2.5c0.2-0.4,0.4-0.7,0.5-0.9c0.3-0.4,0.8-1.5,1.3-2.4c0.3-0.6,0.7-1.2,0.8-1.5c0.4-0.7,2-3.6,2-3.6
		c0,0,0,0,0.1,0c0,0,0,0,0,0.1c0,0-1.6,2.9-2,3.6c-0.2,0.3-0.5,0.9-0.8,1.5c-0.5,0.9-1,1.9-1.3,2.4c-0.1,0.2-0.3,0.5-0.5,0.9
		c-0.5,0.8-1.1,1.9-1.5,2.5C47.4,25.8,46.7,27.1,46.6,27.4C46.7,27.4,46.6,27.4,46.6,27.4z"/>
	<path class="st1" d="M46.6,27.4C46.6,27.4,46.6,27.4,46.6,27.4C46.6,27.4,46.5,27.4,46.6,27.4c-0.1-0.4,0.9-2,1.2-2.7
		c0.4-0.6,1-1.6,1.5-2.5c0.2-0.4,0.4-0.7,0.5-0.9c0.3-0.4,0.8-1.5,1.3-2.4l0-0.1c0.3-0.6,0.6-1.2,0.8-1.5c0.4-0.7,2-3.6,2-3.6
		c0,0,0.1-0.1,0.1,0c0,0,0.1,0.1,0,0.1c0,0,0,0.1-0.1,0.2c-0.4,0.7-1.6,2.8-1.9,3.4c-0.2,0.3-0.5,0.9-0.8,1.5l0,0
		c-0.5,0.9-1,1.9-1.3,2.4c-0.1,0.2-0.3,0.4-0.4,0.7l-0.1,0.2c-0.5,0.8-1.1,1.9-1.5,2.5C47.4,25.9,46.7,27.2,46.6,27.4
		C46.7,27.4,46.7,27.4,46.6,27.4z M54.1,13.9C54.1,13.9,54.1,13.9,54.1,13.9c0,0-1.7,2.9-2,3.6c-0.2,0.3-0.5,0.8-0.8,1.4l0,0.1
		c-0.5,0.9-1,1.9-1.3,2.4c-0.1,0.2-0.3,0.5-0.5,0.9c-0.5,0.8-1.1,1.9-1.5,2.5c-0.5,0.8-1.3,2.3-1.3,2.5c0,0,0,0,0,0l0,0c0,0,0,0,0,0
		c0-0.2,0.7-1.6,1.3-2.5c0.4-0.6,1-1.6,1.5-2.5l0.1-0.2c0.2-0.3,0.3-0.5,0.4-0.7c0.3-0.4,0.8-1.5,1.3-2.3l0,0
		c0.3-0.6,0.7-1.2,0.8-1.5c0.3-0.6,1.5-2.7,1.9-3.4C54,14,54.1,13.9,54.1,13.9C54.1,13.9,54.1,13.9,54.1,13.9
		C54.1,13.9,54.1,13.9,54.1,13.9z"/>
</g>
<g>
	<path class="st1" d="M37.3,15.9c-0.3,0.4-0.5,0.9-0.7,1.2c-0.3,0.5-0.7,1.1-1,1.6c-0.1,0.2-0.2,0.4-0.3,0.5c-0.2,0.3-1.1,2-1.2,2
		c0,0,0,0.1,0,0.1c0,0,0,0,0,0c0,0,0,0,0,0c0,0,1-1.7,1.2-2c0.1-0.1,0.2-0.3,0.3-0.5c0.3-0.5,0.7-1.1,1-1.6c0.1-0.3,0.4-0.6,0.6-1
		C37.3,16,37.3,15.9,37.3,15.9z"/>
	<path class="st1" d="M42.3,7.8C42.2,7.7,42.2,7.7,42.3,7.8c-0.1,0-0.6,0.9-0.9,1.2c-0.2,0.2-0.4,0.7-0.7,1.1
		c-0.2,0.3-0.3,0.5-0.4,0.7c-0.1,0.1-0.2,0.3-0.2,0.4c-0.2,0.3-0.3,0.6-0.6,0.9c-0.3,0.4-0.8,1.4-0.8,1.5c0,0-0.6,0.9-0.7,1.1
		l-0.1,0.2c-0.1,0.2-0.3,0.5-0.5,0.8c0,0,0,0,0,0c0,0,0,0,0,0.1c0.2-0.3,0.4-0.7,0.5-0.8l0.1-0.2c0.1-0.1,0.7-1.1,0.7-1.1
		c0,0,0.4-1.1,0.8-1.5c0.2-0.3,0.4-0.6,0.6-0.9c0.1-0.1,0.1-0.2,0.2-0.4c0.1-0.2,0.3-0.5,0.4-0.7C41,9.7,41.3,9.2,41.4,9
		C41.7,8.7,42.3,7.8,42.3,7.8C42.3,7.8,42.3,7.8,42.3,7.8z"/>
	<path class="st1" d="M42.3,7.8C42.3,7.8,42.3,7.7,42.3,7.8c-0.1-0.1-0.1-0.1-0.2,0l0,0C42,8,41.6,8.7,41.3,8.9
		c-0.2,0.2-0.4,0.7-0.7,1.1c-0.2,0.3-0.3,0.5-0.4,0.7c-0.1,0.1-0.1,0.2-0.2,0.4l0,0c-0.2,0.3-0.3,0.6-0.6,0.9
		c-0.3,0.4-0.8,1.4-0.8,1.5l0,0c-0.4,0.6-0.6,1-0.6,1.1l-0.1,0.2c-0.1,0.2-0.3,0.4-0.4,0.7c0,0,0,0,0,0.1c0,0,0,0,0,0
		c0.2-0.3,0.3-0.6,0.5-0.8l0.1-0.2c0-0.1,0.3-0.4,0.6-1l0,0l0,0c0,0,0.4-1.1,0.8-1.5c0.2-0.3,0.4-0.6,0.6-0.9l0,0
		c0.1-0.1,0.1-0.2,0.2-0.4c0.1-0.2,0.3-0.5,0.4-0.7C41,9.6,41.2,9.2,41.4,9c0.2-0.3,0.7-1,0.8-1.2l0,0C42.2,7.8,42.2,7.8,42.3,7.8
		C42.2,7.8,42.2,7.8,42.3,7.8C42.2,7.8,42.2,7.8,42.3,7.8C42.3,7.8,42.3,7.8,42.3,7.8c-0.1,0-0.6,0.9-0.9,1.2
		c-0.2,0.2-0.4,0.7-0.6,1.1l0,0c-0.1,0.3-0.3,0.5-0.4,0.7c-0.1,0.1-0.2,0.3-0.2,0.4c-0.2,0.3-0.3,0.6-0.6,0.9
		c-0.3,0.4-0.7,1.4-0.8,1.5c0,0-0.1,0.1-0.1,0.2c-0.2,0.3-0.5,0.8-0.5,0.9L38,14.8c-0.1,0.2-0.3,0.5-0.5,0.8c0,0,0,0,0,0.1
		c0,0,0,0,0,0.1c0.2-0.4,0.4-0.7,0.5-0.9l0.1-0.2c0.1-0.1,0.3-0.6,0.5-0.9c0.1-0.1,0.1-0.2,0.1-0.2l0,0c0,0,0.4-1.1,0.8-1.5
		c0.3-0.3,0.4-0.6,0.6-0.9c0.1-0.1,0.1-0.2,0.2-0.4c0.1-0.2,0.3-0.5,0.4-0.7l0,0c0.2-0.4,0.5-0.9,0.6-1.1
		C41.7,8.7,42.3,7.9,42.3,7.8C42.3,7.8,42.3,7.8,42.3,7.8z"/>
	<path class="st1" d="M37.3,16c-0.2,0.4-0.5,0.8-0.6,1.1c-0.3,0.5-0.7,1.1-1,1.6l0,0c-0.1,0.2-0.2,0.4-0.3,0.5c-0.2,0.3-1.1,2-1.2,2
		c0,0,0,0,0,0c0,0,0,0,0,0c0,0,0,0,0,0l0,0c0.1-0.2,1-1.7,1.1-2c0.1-0.1,0.2-0.3,0.3-0.5l0,0c0.3-0.5,0.7-1.1,1-1.6
		C36.8,16.8,37,16.4,37.3,16c0-0.1,0-0.2,0-0.2c-0.3,0.5-0.5,0.9-0.7,1.2c-0.3,0.5-0.7,1.1-1,1.6l0,0c-0.1,0.2-0.2,0.4-0.3,0.5
		c-0.2,0.3-1,1.7-1.1,2l0,0c0,0,0,0,0,0.1c0,0,0,0,0,0.1c0,0,0,0,0,0c0,0,0.1,0,0.1,0c0,0,1-1.7,1.2-2c0.1-0.1,0.2-0.3,0.3-0.5l0,0
		c0.3-0.5,0.7-1.1,1-1.6c0.1-0.2,0.3-0.6,0.6-1C37.3,16.1,37.3,16.1,37.3,16z"/>
</g>
<g>
	<path class="st1" d="M42.1,20.1c-0.2,0.4-0.5,0.8-0.7,1.1c-0.1,0.2-0.3,0.4-0.4,0.6c-0.2,0.3-0.4,0.6-0.5,0.9c-0.2,0.4-1,1.8-1,1.8
		c0,0,0,0.1,0,0.1c0,0,0,0,0,0c0,0,0,0,0,0c0,0,0.8-1.4,1-1.8c0.1-0.2,0.3-0.6,0.5-0.8c0.1-0.2,0.3-0.4,0.4-0.6
		c0.2-0.3,0.4-0.7,0.6-1C42.1,20.1,42.1,20.1,42.1,20.1z"/>
	<path class="st1" d="M43.5,17.8C43.5,17.8,43.5,17.8,43.5,17.8c-0.2,0.3-0.9,1.6-1.1,1.9c0,0.1-0.1,0.1-0.1,0.2c0,0,0,0,0,0.1
		c0,0,0,0,0,0c0.1-0.1,0.1-0.2,0.2-0.2c0.2-0.3,1-1.5,1.1-1.8c0,0,0-0.1,0-0.1C43.6,17.8,43.5,17.8,43.5,17.8z"/>
	<path class="st1" d="M47.6,10.5C47.6,10.5,47.5,10.5,47.6,10.5c-0.2,0.1-0.4,0.5-0.5,0.7c-0.1,0.2-0.2,0.3-0.2,0.4
		c-0.1,0.2-1.1,2-1.3,2.5c-0.1,0.3-0.4,0.8-0.7,1.3c-0.2,0.4-0.4,0.7-0.5,0.9c-0.2,0.3-0.4,0.8-0.7,1.1c0,0,0,0,0,0c0,0,0.1,0,0.1,0
		c0,0,0.1,0,0.1-0.1c0.2-0.3,0.4-0.7,0.6-1c0.1-0.2,0.3-0.6,0.5-0.9c0.3-0.5,0.6-1,0.7-1.3c0.2-0.5,1.1-2.3,1.3-2.5
		c0.1-0.1,0.1-0.2,0.2-0.4C47.3,11,47.5,10.7,47.6,10.5C47.6,10.5,47.6,10.5,47.6,10.5z"/>
	<path class="st1" d="M42.1,20.1c-0.2,0.3-0.5,0.8-0.6,1.1c-0.1,0.2-0.3,0.4-0.4,0.6l0,0c-0.2,0.3-0.4,0.6-0.5,0.8
		c-0.2,0.4-1,1.7-1,1.8c0,0,0,0,0,0c0,0,0,0,0,0c0,0,0,0,0,0c0,0,0.8-1.4,1-1.8c0.1-0.3,0.3-0.6,0.5-0.9l0,0
		c0.1-0.2,0.3-0.4,0.4-0.6C41.6,20.9,41.9,20.5,42.1,20.1c0-0.1,0-0.1,0-0.1c-0.2,0.4-0.5,0.8-0.7,1.1c-0.1,0.2-0.2,0.4-0.4,0.6l0,0
		c-0.2,0.3-0.4,0.6-0.5,0.9c-0.2,0.4-1,1.8-1,1.8c0,0,0,0,0,0.1c0,0,0,0,0,0.1c0,0,0,0,0,0c0,0,0.1,0,0.1,0c0-0.1,0.8-1.4,1-1.8
		c0.1-0.2,0.3-0.5,0.5-0.8l0,0c0.1-0.2,0.3-0.4,0.4-0.6C41.7,21,42,20.5,42.1,20.1C42.2,20.2,42.1,20.2,42.1,20.1z"/>
	<path class="st1" d="M42.3,19.9c0.1-0.1,0.1-0.2,0.1-0.2c0.2-0.3,1-1.5,1.1-1.8c0,0,0,0,0-0.1c0,0,0,0-0.1,0c0,0,0,0.1,0,0.1
		c-0.1,0.3-0.9,1.5-1.1,1.8C42.3,19.7,42.3,19.7,42.3,19.9C42.2,19.8,42.3,19.8,42.3,19.9z"/>
	<path class="st1" d="M43.6,17.8C43.6,17.8,43.5,17.9,43.6,17.8c-0.2,0.3-0.9,1.6-1.1,1.9c0,0.1-0.1,0.1-0.1,0.2c0,0,0,0,0,0
		c0,0,0,0.1,0,0.1c0.1-0.1,0.1-0.2,0.2-0.3C42.7,19.4,43.5,18.2,43.6,17.8C43.6,17.9,43.6,17.8,43.6,17.8
		C43.6,17.8,43.6,17.8,43.6,17.8z"/>
	<path class="st1" d="M47.6,10.4c0,0-0.1,0-0.1,0c-0.1,0.1-0.3,0.5-0.4,0.7c-0.1,0.2-0.2,0.3-0.2,0.4c-0.1,0.2-1.1,2-1.3,2.5
		c-0.1,0.3-0.4,0.8-0.7,1.3l0,0c-0.2,0.4-0.4,0.7-0.5,0.9c-0.2,0.3-0.4,0.8-0.7,1.1c0,0,0,0.1-0.1,0.1c0,0,0.1-0.1,0.1-0.1
		c0.2-0.3,0.5-0.8,0.6-1.1c0.1-0.2,0.3-0.6,0.5-0.9l0,0c0.3-0.5,0.6-1,0.7-1.3c0.2-0.5,1.1-2.3,1.3-2.5c0.1-0.1,0.1-0.2,0.2-0.4
		C47.3,10.9,47.4,10.6,47.6,10.4C47.5,10.5,47.6,10.5,47.6,10.4C47.6,10.5,47.6,10.5,47.6,10.4C47.6,10.5,47.6,10.5,47.6,10.4
		C47.6,10.5,47.6,10.5,47.6,10.4c-0.2,0.2-0.3,0.5-0.5,0.8c-0.1,0.2-0.2,0.4-0.2,0.4c-0.1,0.2-1.1,2-1.3,2.5
		c-0.1,0.3-0.4,0.8-0.7,1.3l0,0c-0.2,0.4-0.4,0.7-0.5,0.9c-0.1,0.3-0.4,0.7-0.6,1c0,0,0.1-0.1,0.1-0.1c0.2-0.3,0.4-0.7,0.5-0.9
		c0.1-0.2,0.3-0.6,0.5-0.9l0,0c0.3-0.5,0.6-1,0.7-1.3c0.2-0.5,1.1-2.3,1.3-2.4c0.1-0.1,0.1-0.2,0.2-0.4c0.1-0.3,0.3-0.6,0.4-0.7
		C47.6,10.6,47.6,10.5,47.6,10.4C47.6,10.5,47.6,10.5,47.6,10.4z"/>
</g>
<g>
	<path d="M43.7,21c-0.2,0-0.3-0.1-0.3-0.3c0-0.2,0.1-0.3,0.3-0.3c0.2,0,0.3,0.1,0.3,0.3C44,20.8,43.9,21,43.7,21z M43.7,20.5
		c-0.1,0-0.2,0.1-0.2,0.2c0,0.1,0.1,0.2,0.2,0.2c0.1,0,0.2-0.1,0.2-0.2C43.9,20.6,43.8,20.5,43.7,20.5z"/>
	<path d="M43.7,21c-0.2,0-0.3-0.1-0.3-0.3c0-0.2,0.1-0.3,0.3-0.3c0.2,0,0.3,0.1,0.3,0.3C44,20.9,43.9,21,43.7,21z M43.7,20.4
		c-0.1,0-0.2,0.1-0.2,0.2c0,0.1,0.1,0.2,0.2,0.2c0.1,0,0.2-0.1,0.2-0.2C44,20.5,43.8,20.4,43.7,20.4z M43.7,20.9
		c-0.1,0-0.2-0.1-0.2-0.2c0-0.1,0.1-0.2,0.2-0.2c0.1,0,0.2,0.1,0.2,0.2C43.9,20.8,43.8,20.9,43.7,20.9z M43.7,20.5
		c-0.1,0-0.1,0.1-0.1,0.1s0.1,0.1,0.1,0.1c0.1,0,0.1-0.1,0.1-0.1S43.8,20.5,43.7,20.5z"/>
</g>
<g>
	<path class="st0" d="M31.7,14.8l-0.1,0.1l0,0L31.7,14.8c-0.1-0.1-0.1-0.1-0.2-0.1c-0.1,0-0.2,0.1-0.3,0.2l-0.1,0.2
		c-0.1,0.1-0.2,0.3-0.2,0.4l-0.1,0.1c-0.1,0.1-0.2,0.3-0.2,0.4c-0.1,0.2-0.5,0.9-0.6,1.1L29.4,18c0,0.1,0,0.1,0,0.2
		c0,0.1,0.1,0.1,0.1,0.1c0,0,0.1,0,0.2,0c0,0.1,0.1,0.1,0.1,0.1c0,0,0.1,0,0.1,0c0.1,0,0.2,0,0.2-0.1c0,0,1.3-2.4,1.5-2.7l0.2-0.3
		c0.1-0.1,0.2-0.3,0-0.5C31.8,14.9,31.7,14.9,31.7,14.8z"/>
	<path class="st0" d="M37.6,5C37.6,5,37.6,5,37.6,5L37.6,5L37.6,5c-0.1-0.1-0.2-0.1-0.3-0.1c0,0-0.3,0.1-0.4,0.3l-0.1,0.1
		c-0.1,0.1-0.2,0.4-0.4,0.7c-0.1,0.2-0.2,0.4-0.3,0.6c-0.1,0.3-0.3,0.5-0.4,0.8c-0.2,0.5-0.6,1.1-0.8,1.5c-0.1,0.2-0.3,0.5-0.4,0.7
		l0,0.1c-0.2,0.3-0.3,0.6-0.5,0.8c-0.3,0.5-0.7,1.1-0.9,1.5c-0.2,0.3-0.9,1.5-1.2,2c0,0.1-0.1,0.1-0.1,0.2l0,0
		c0,0.1-0.1,0.2-0.1,0.3c0,0.1,0,0.2,0.1,0.2c0,0,0,0,0,0c0,0,0,0.1,0.1,0.2l0,0H32c0.1,0,0.2-0.1,0.3-0.3l0.2-0.3
		c0.1-0.1,0.1-0.2,0.2-0.4c0.2-0.4,1-1.5,1.3-2c0.1-0.2,0.3-0.4,0.5-0.7l0-0.1c0.2-0.4,0.5-0.8,0.6-1c0.2-0.3,0.8-1.4,1.1-2l0,0
		c0.1-0.1,0.1-0.2,0.2-0.3c0.1-0.1,0.2-0.4,0.4-0.7c0.3-0.5,0.6-1.1,0.8-1.4C37.7,5.5,37.8,5.2,37.6,5z"/>
</g>
<circle cx="49.1" cy="14.5" r="0.7"/>
<circle cx="43.6" cy="20.6" r="0.7"/>
<circle cx="44.5" cy="24.6" r="0.7"/>
<circle cx="35.1" cy="13" r="0.6"/>
<path class="st3" d="M22.4,16.4c-0.2,0.7-0.3,1.4-0.3,2.1c0,0.7,0.2,1.5,0.7,2c0.5,0.5,1.3,0.8,1.9,0.6c0.3-0.1,0.5-0.2,0.8-0.2
	c0.3,0,0.5,0.2,0.8,0.3c0.3,0.1,0.7,0,0.7-0.3"/>
<path d="M26.8,21c-0.1-0.1-0.1-0.2,0-0.3c0.1-0.1,0.2-0.2,0.3-0.2c0.6-0.4,0.8-1.2,0.9-1.9c0-0.1,0-0.2,0.1-0.2c0.1,0,0.1,0,0.2,0
	c0.1,0,0.1,0.1,0.1,0.1c0.1,0.1,0.1,0.3,0.1,0.5c0,0.8-0.2,1.5-0.6,2.2c-0.1,0.1-0.2,0.3-0.3,0.3c-0.1,0.1-0.3,0.1-0.4,0
	c-0.1-0.1-0.2-0.2-0.2-0.3c0-0.1,0-0.2-0.1-0.3"/>
<path class="st0" d="M43.6,20.2c-0.2,0-0.5-0.1-0.7-0.3c-0.2-0.2-0.3-0.4-0.4-0.8c-0.1-0.5-0.2-1-0.2-1.6c0-0.3-0.1-0.7-0.1-1
	c-0.1-0.6-0.4-1.8-1.4-2.3c-0.6-0.3-1.2-0.2-1.8-0.2c-0.1,0-0.2,0-0.3,0c-0.5,0.1-0.9,0.1-1.4,0.1c-0.7-0.1-1.3-0.5-1.7-1.1L35.4,13
	l-0.5,0.2l0,0.1c0.2,0.6,0.7,1.2,1.4,1.5c0.5,0.2,1.2,0.3,2,0.3c0.1,0,0.2,0,0.3,0c0.4,0,0.9-0.1,1.3,0.1c0.5,0.2,0.9,0.6,1.1,1.2
	c0.2,0.5,0.2,1,0.3,1.5l0,0.3c0.1,0.6,0.2,1.2,0.6,1.8c0.4,0.6,1,1,1.6,1c0,0,0,0,0.1,0l0.1,0l0.3-0.6L43.6,20.2z"/>
<path class="st0" d="M47.6,18.2c-0.2-0.3-0.4-0.6-0.4-1c-0.1-0.5,0.2-1.2,0.7-1.6c0.4-0.3,1-0.5,1.5-0.7c0-0.1-0.1-0.2-0.1-0.3
	c-0.1-0.1-0.1-0.2-0.1-0.3l-0.1,0l0,0c-0.8,0.2-1.6,0.5-2.2,1.2c-0.7,0.7-0.9,1.7-0.5,2.4c0.1,0.2,0.2,0.4,0.4,0.6
	c0.1,0.1,0.2,0.2,0.3,0.4c0.5,0.8,0.5,2.1-0.1,3.1c-0.5,1-1.4,1.7-2.3,2.4l-0.1,0l0.3,0.4l0.1,0c1.3-0.8,2.2-1.6,2.8-2.5
	c0.7-1.2,0.8-2.6,0.3-3.6C47.8,18.5,47.7,18.4,47.6,18.2z"/>
<path d="M28.2,20.4c-0.1,0-0.1,0.1-0.1,0.1c0,0,0,0.1,0,0.1c0.1,0.2,0.2,0.3,0.4,0.4c0,0,0.1,0,0.1,0c0,0,0,0,0-0.1
	c0-0.1,0-0.1,0-0.2c0-0.1-0.1-0.1-0.1-0.2S28.2,20.5,28.2,20.4"/>
<path class="st5" d="M25.7,12.4c1.3,0.9,2.7,1.7,4.1,2.4"/>
<path class="st5" d="M29.8,4.6c1.6,0.8,3.1,1.5,4.7,2.3"/>
<path class="st5" d="M41.6,10.8c0.9,0.5,1.8,0.9,2.7,1.4"/>
<path class="st5" d="M41,12.1c0.6,0.4,1.2,0.8,1.8,1.1"/>
<path class="st5" d="M49.1,15.8c0.6,0.3,1.2,0.5,1.9,0.8"/>
<path class="st5" d="M48.2,16.8c0.7,0.4,1.4,0.7,2.2,1.1"/>
<circle class="st2" cx="35.1" cy="13" r="0.2"/>
<circle class="st2" cx="43.6" cy="20.6" r="0.3"/>
<circle class="st2" cx="49.1" cy="14.5" r="0.3"/>
<circle class="st2" cx="44.5" cy="24.6" r="0.3"/>
<polygon points="37.3,6.9 30.6,18.6 29.7,18.2 36.6,6.7 "/>
<path d="M40.7,8.8l-7.1,12.1c0.1,0,0.2,0.1,0.3,0.2l0.4,0L41.4,9L40.7,8.8z"/>
<polygon points="39.1,24.1 46.3,11.5 46.8,11.7 39.4,24.7 "/>
<path class="st0" d="M36.8,6.5c-2-1.3-4.2-2.4-6.5-3.4l-0.1,0.2c0,0,0,0,0,0c-0.3-0.1-0.6-0.2-0.9-0.1c-0.2,0.1-0.3,0.3-0.4,0.5
	c-1.8,3.5-3.8,7.5-5.6,11l0.5,0c0.9-1.7,2-3.9,2.8-5.6c0.4-0.8,0.9-1.7,1.3-2.5c0.3-0.7,0.8-1.3,1.1-2c0.2-0.3,0.4-0.7,0.8-0.7
	c0.3,0,0.5,0.1,0.7,0.2c1.9,1,3.8,2,5.6,2.9c0.1,0,0.1-0.1,0.1-0.2c0.1,0,0.1,0.1,0.2,0.1L36.8,6.5z"/>
<path class="st0" d="M53.3,14.8c0,0-1-0.5-1.4-0.8l-0.4-0.2c-0.4-0.2-0.9-0.5-1.2-0.7c-0.2-0.1-0.4-0.2-0.6-0.3l-0.1,0
	c-0.3-0.1-0.5-0.2-0.6-0.3c0,0-1.4-0.8-1.8-0.9c-0.2-0.1-0.3-0.1-0.4-0.1c-0.1,0-0.3-0.1-0.4-0.1c-0.2-0.1-0.3-0.1-0.5-0.2
	c-0.1-0.1-0.3-0.2-0.4-0.2c-0.2-0.1-0.5-0.2-0.8-0.4c-0.2-0.1-0.4-0.2-0.6-0.3c-0.2-0.1-0.3-0.2-0.5-0.2c-0.2-0.1-0.3-0.1-0.5-0.2
	c-0.4-0.2-1.2-0.6-1.5-0.8c-0.3-0.1-1.2-0.6-1.7-0.8c-0.2-0.1-0.6-0.3-0.9-0.5c-0.4-0.2-0.7-0.4-1.1-0.6c-0.6-0.3-1.1-0.7-1.1-0.7
	c0,0-0.1-0.1-0.2-0.1c-0.1,0-0.1,0-0.2,0.1c0,0-0.1,0.1-0.1,0.2L35.6,6l0,0.5l17.3,8.9l0.2-0.3c0,0,0,0,0,0c0,0,0.1,0,0.1,0
	c0.1,0,0.2-0.1,0.2-0.1c0-0.1,0-0.1,0-0.2C53.4,14.9,53.4,14.8,53.3,14.8z"/>
<g>
	<path class="st0" d="M37,11.8c-0.2-0.9-0.8-1.7-1.7-2.2c-1-0.5-2.2-0.4-3,0.1c-0.2,0.1-0.4,0.3-0.6,0.4c-0.4,0.3-0.9,0.6-1.4,0.8
		c-1.1,0.4-2.2,0.3-2.8-0.4l0.8-0.8c0.4,0.4,1,0.3,1.5,0.1c0.4-0.2,0.8-0.4,1.2-0.7c0.2-0.2,0.5-0.3,0.7-0.5
		c1.2-0.7,2.8-0.8,4.1-0.1c1.3,0.6,2.2,1.7,2.4,3L37,11.8z"/>
</g>
<circle class="st0" cx="27.8" cy="10.1" r="0.8"/>
<circle class="st2" cx="27.8" cy="10.1" r="0.3"/>
<circle class="st0" cx="37.5" cy="11.7" r="0.8"/>
<circle class="st2" cx="37.5" cy="11.7" r="0.3"/>
<g>
	<path class="st0" d="M23.7,39.3c-0.1,0-0.3,0-0.4,0c-0.1,0-0.2-0.1-0.2-0.2c0-0.1,0-0.2,0.1-0.3c0.6-0.4,1-0.9,1.3-1.4
		c-0.4,0.1-0.8,0.2-1,0.5c-0.1,0.1-0.2,0.1-0.3,0c-0.1,0-0.1-0.1-0.1-0.2c0-0.5,0.2-1,0.4-1.5c-0.1,0.1-0.3,0.2-0.4,0.3
		c-0.1,0.1-0.2,0.1-0.3,0c-0.1-0.1-0.1-0.2-0.1-0.3c0.2-0.7,0.8-1.3,1.8-1.6c0.2-0.1,0.4-0.1,0.5-0.2c0.2-0.1,0.3-0.1,0.4-0.2
		c-0.2,0-0.4-0.1-0.6-0.2c-0.1,0-0.1-0.1-0.1-0.2c0-0.1,0-0.1,0-0.2c0.1-0.2,0.2-0.4,0.3-0.5c-0.3,0.1-0.6,0.2-0.8,0.3
		c-0.1,0-0.2,0-0.3-0.1c-0.1-0.1-0.1-0.2,0-0.3c0.2-0.2,0.5-0.4,0.7-0.6c0.1-0.1,0.2-0.2,0.3-0.2c0.1-0.1,0.3-0.2,0.4-0.4
		c-0.4,0.2-0.8,0.3-1.2,0.3c-0.1,0-0.2,0-0.2-0.1c0-0.1,0-0.2,0-0.3c0.7-1,1.2-1.9,1.6-2.8c-0.4,0.2-0.8,0.3-1.2,0.4
		c-0.1,0-0.2-0.1-0.3-0.2c0-0.1,0-0.2,0.1-0.3c0.5-0.2,0.8-0.8,0.9-1.2l0.1-0.2c0.1-0.3,0.3-0.7,0.5-1c0.3-0.4,0.7-0.6,1-0.7
		l0.2,0.4c-0.4,0.2-0.7,0.3-0.8,0.6c-0.2,0.3-0.3,0.6-0.4,0.9l-0.1,0.2c-0.1,0.2-0.2,0.5-0.4,0.7c0.2-0.1,0.4-0.3,0.6-0.4
		c0.1-0.1,0.2-0.1,0.3,0c0.1,0.1,0.1,0.2,0.1,0.3c-0.4,1-0.9,2.1-1.7,3.2c0.4-0.1,0.8-0.3,1.2-0.6c0.1-0.1,0.2-0.1,0.3,0
		c0.1,0,0.1,0.1,0.1,0.2c-0.1,0.6-0.7,1.2-0.9,1.3c0,0-0.1,0-0.1,0.1c0,0,0.1,0,0.1,0c0.1,0,0.1,0,0.2,0.1c0,0.1,0.1,0.1,0.1,0.2
		c0,0.3-0.2,0.5-0.3,0.8c0.4,0.1,0.8,0.1,1.2-0.1c0.1,0,0.2,0,0.3,0.1c0.1,0.1,0,0.2-0.1,0.3c-0.5,0.4-1.1,0.6-1.6,0.8
		c-0.2,0.1-0.4,0.1-0.5,0.2c-0.4,0.1-0.8,0.4-1.1,0.7c0.2-0.1,0.3-0.1,0.5-0.1c0.1,0,0.2,0,0.3,0.1c0,0.1,0,0.2,0,0.3
		c-0.3,0.3-0.6,0.8-0.7,1.3c0.4-0.2,0.8-0.3,1.3-0.3l0,0c0.1,0,0.2,0,0.2,0.1c0,0.1,0.1,0.1,0,0.2c-0.3,0.6-0.6,1.2-1.1,1.6
		c0.2,0,0.4-0.1,0.6-0.2c0.3-0.2,0.4-0.4,0.6-0.7c0.1-0.1,0.2-0.2,0.2-0.3c0.5-0.6,1.2-1.1,1.9-1.3c0.1,0,0.2,0,0.3,0.1
		c0.1,0.1,0.1,0.2,0,0.3c-0.3,0.3-0.5,0.7-0.6,1c0,0.1-0.1,0.2-0.1,0.3c0.3-0.5,0.8-0.9,1.4-1.2c0.1,0,0.2-0.1,0.3-0.1
		c0.2-0.1,0.5-0.2,0.6-0.3c0.1-0.1,0.2-0.1,0.3,0c0.1,0,0.1,0.2,0.1,0.2c-0.1,0.4-0.2,0.8-0.4,1.1c0.3-0.2,0.6-0.4,0.8-0.6
		c0.3-0.4,0.6-0.8,0.7-1.5C31,35,31,34.4,31,33.8c0-0.1,0.1-0.2,0.1-0.2c0.1,0,0.2,0,0.2,0c0.3,0.3,0.5,0.7,0.5,1.1
		c0.4-0.3,0.8-0.7,1-1.2c0.3-0.8,0.3-1.6,0.3-2.4v-0.2h0.5v0.2c0,0.9,0,1.7-0.4,2.6c-0.3,0.8-0.9,1.3-1.6,1.7c-0.1,0-0.2,0-0.2,0
		c-0.1-0.1-0.1-0.1-0.1-0.2c0-0.2,0-0.4,0-0.5c0,0.3-0.1,0.7-0.1,1c-0.2,0.7-0.4,1.2-0.8,1.7c-0.5,0.6-1.3,0.9-1.9,1.1
		c-0.1,0-0.2,0-0.3-0.1c-0.1-0.1,0-0.2,0-0.3c0.3-0.3,0.6-0.7,0.8-1.1C29,37,28.9,37,28.9,37c-0.1,0-0.2,0.1-0.3,0.1
		c-0.7,0.3-1.3,0.9-1.5,1.7c0,0.1-0.1,0.2-0.2,0.2c-0.1,0-0.2,0-0.2-0.1c-0.2-0.4-0.2-0.9,0-1.4c0-0.1,0.1-0.3,0.2-0.4
		c-0.4,0.2-0.7,0.5-1,0.9c-0.1,0.1-0.1,0.2-0.2,0.3c-0.2,0.3-0.4,0.6-0.8,0.8C24.5,39.2,24.1,39.3,23.7,39.3z"/>
</g>
<g>
	<path class="st0" d="M18.5,47.2c-0.1,0-0.2-0.1-0.2-0.1C18,46.4,18,45.7,18.2,45c0.2-0.6,0.6-1,0.9-1.5c0.3-0.3,0.5-0.6,0.7-1
		c-0.5,0.1-1.1,0.5-1.3,1c0,0.1-0.2,0.1-0.3,0.1c-0.1,0-0.2-0.1-0.2-0.2c0-0.5,0.3-1.1,0.8-1.6c0.2-0.1,0.3-0.3,0.5-0.4
		c0.3-0.2,0.5-0.4,0.7-0.7c0.3-0.4,0.6-0.9,0.7-1.5c0.1-0.3,0.1-0.6,0.1-0.9c-0.5,0.6-1.1,1.1-1.9,1.3c-0.1,0-0.2,0-0.3-0.1
		c-0.1-0.1,0-0.2,0-0.3c0.7-0.8,1-1.8,1.2-2.9l0-0.1c0.1-0.8,0.3-1.6,0.6-2.3c-0.2,0.2-0.4,0.4-0.6,0.6c-0.1,0.1-0.1,0.1-0.2,0.1
		c-0.1,0-0.2-0.1-0.2-0.1c-0.2-0.6-0.1-1.3,0.3-2c0.2-0.3,0.4-0.6,0.7-0.9c0.1-0.2,0.3-0.4,0.4-0.5c0.2-0.3,0.4-0.6,0.6-1
		c-0.4,0.2-0.8,0.3-1.3,0.2c-0.1,0-0.1-0.1-0.2-0.2c0-0.1,0-0.2,0.1-0.2c0.8-0.8,1.4-1.9,1.5-3c0-0.2,0-0.4,0.1-0.7
		c0-0.3,0-0.6,0.1-1c0.1-0.4,0.3-1.1,1-1.5l0.2,0.4c-0.5,0.3-0.7,0.8-0.7,1.2c-0.1,0.3-0.1,0.6-0.1,0.9c0,0.2,0,0.5-0.1,0.7
		c-0.1,1-0.6,2-1.3,2.9c0.3,0,0.6-0.2,0.8-0.5c0.1-0.1,0.2-0.1,0.3-0.1c0.1,0,0.2,0.1,0.2,0.2c0.1,0.7-0.3,1.4-0.7,1.9
		c-0.1,0.2-0.3,0.4-0.4,0.6c-0.2,0.3-0.5,0.6-0.6,0.9c-0.2,0.4-0.3,0.8-0.3,1.1c0.3-0.4,0.7-0.6,1.1-0.8c0.1,0,0.2,0,0.3,0
		c0.1,0.1,0.1,0.2,0,0.3c-0.5,0.9-0.7,1.9-0.9,2.9l0,0.1c-0.2,0.8-0.4,1.7-0.8,2.4c0.6-0.3,1-0.9,1.3-1.5c0-0.1,0.1-0.2,0.3-0.1
		c0.1,0,0.2,0.1,0.2,0.2c0,0.7,0,1.4-0.1,1.9c-0.1,0.7-0.4,1.3-0.8,1.7c-0.2,0.3-0.5,0.5-0.8,0.7c-0.2,0.1-0.3,0.2-0.5,0.4
		c0,0-0.1,0.1-0.1,0.1c0.3-0.2,0.7-0.3,1.1-0.3c0.1,0,0.1,0,0.2,0.1c0,0.1,0.1,0.1,0,0.2c-0.2,0.6-0.6,1-0.9,1.5
		c-0.3,0.4-0.7,0.8-0.8,1.3c-0.1,0.3-0.2,0.7-0.1,1.1c0.5-1.1,1.3-2,2.3-2.7c0.1,0,0.2,0,0.3,0c0.1,0,0.1,0.1,0.1,0.2
		c-0.1,0.6-0.3,1.2-0.7,1.6c1.6-0.4,3.1-1.5,3.9-3c0-0.1,0.1-0.1,0.2-0.1c0.1,0,0.2,0,0.2,0.1c0.2,0.3,0.3,0.8,0,1.3
		c-0.1,0.2-0.2,0.4-0.3,0.6c-0.1,0.1-0.1,0.2-0.2,0.4c0,0,0,0.1-0.1,0.1c0.3-0.3,0.7-0.6,1.1-0.8c0.4-0.2,0.7-0.3,1.1-0.5
		c0.3-0.1,0.6-0.2,0.9-0.4c0.7-0.4,1.2-0.8,1.5-1.2c0.1-0.1,0.2-0.1,0.3-0.1c0.1,0,0.2,0.1,0.2,0.2c0,0.5-0.2,0.8-0.4,1.2
		c-0.1,0.2-0.3,0.3-0.4,0.5c0.8-0.1,1.6-0.5,2.1-1c0.7-0.7,1.2-1.8,1.1-2.8c0-0.1,0.1-0.2,0.2-0.2c0.1,0,0.2,0.1,0.2,0.2
		c0,0.3,0.1,0.7,0.3,0.9c-0.2-1.8,0.3-3.8,1.6-5.2c0.1-0.1,0.2-0.1,0.3-0.1c0.1,0,0.1,0.1,0.2,0.2c0,0.4,0,0.9-0.2,1.4
		c0.6-0.2,1.2-0.6,1.6-1.1c0.5-0.6,0.8-1.4,0.8-2.2l0.5,0c0,0.9-0.3,1.8-0.9,2.5c-0.6,0.7-1.4,1.2-2.3,1.4c-0.1,0-0.2,0-0.2-0.1
		c-0.1-0.1-0.1-0.2,0-0.2c0.1-0.3,0.2-0.6,0.3-0.9c-1,1.4-1.3,3.3-0.9,5c0,0.1,0,0.2-0.1,0.3c-0.1,0.1-0.2,0.1-0.3,0
		c-0.3-0.2-0.5-0.5-0.7-0.8c-0.2,0.8-0.6,1.5-1.2,2.1c-0.8,0.8-1.9,1.2-3.1,1.2c-0.1,0-0.2-0.1-0.2-0.1c0-0.1,0-0.2,0.1-0.3
		c0.3-0.3,0.6-0.5,0.8-0.8c-0.3,0.2-0.6,0.4-0.9,0.5c-0.3,0.1-0.6,0.3-0.9,0.4c-0.4,0.1-0.7,0.3-1.1,0.5c-0.7,0.4-1.1,0.8-1.4,1.3
		c0,0.1-0.1,0.1-0.2,0.1c-0.1,0-0.2-0.1-0.2-0.2c-0.1-0.4-0.1-0.8,0.1-1.2c0.1-0.1,0.1-0.3,0.2-0.4c0.1-0.2,0.2-0.4,0.3-0.5
		c0-0.1,0.1-0.2,0.1-0.4c-1.1,1.5-2.8,2.6-4.7,2.9c-0.1,0-0.2,0-0.2-0.1c0-0.1,0-0.2,0.1-0.3c0.4-0.3,0.8-0.8,0.9-1.3
		C19.7,45,19,46,18.7,47C18.7,47.1,18.6,47.2,18.5,47.2C18.5,47.2,18.5,47.2,18.5,47.2z"/>
</g>
<path class="st2" d="M28.7,20.3c-0.1,0.8-0.2,2-0.1,2.4c0,0.3,0.2,0.9,0.4,1.5c0.3,0,0.6,0,0.9-0.1c-0.7-1.7-0.5-3.9-0.4-5.6l0,0
	c0-0.3,0-0.5,0-0.6l0-0.1c0-0.2,0-0.4,0.1-0.5l0,0c0.2-0.2,0.3-0.5,0.1-0.7c-0.1-0.1-0.1-0.1-0.2-0.1c-0.2,0-0.3,0.3-0.4,0.4
	c0,0,0,0,0,0c0,0,0,0,0,0C29.1,17,29,17.2,29,17.7C29,18.3,28.9,19.4,28.7,20.3z"/>
<path d="M37.9,24.7C37.9,24.6,37.9,24.6,37.9,24.7c-0.1-0.1-0.1-0.1-0.1-0.1c-0.1,0.1-0.6,0.5-0.8,0.7c-0.1,0.2-0.4,1-0.4,1.3
	c0,0.1,0,0.2,0,0.4c0,0.2,0,0.5-0.2,0.7c0,0-0.1,0.1-0.1,0.1C36,28,35.9,28.2,35.4,28c-0.4-0.1-0.6-0.4-0.7-0.7
	c-0.1-0.1-0.1-0.2-0.2-0.3c-0.2-0.2-0.3-0.3-0.3-0.4c-0.3-0.5-1.3-0.5-1.8-0.6c-0.7-0.2-1.4-0.5-1.9-1.1c-1.8-1.7-1.3-4.7-1.2-7l0,0
	c0-0.3,0-0.5,0-0.6l0-0.1c0-0.2,0-0.4,0.1-0.5l0,0c0.2-0.2,0.3-0.5,0.2-0.7c-0.1-0.1-0.1-0.1-0.2-0.1c-0.2,0-0.3,0.3-0.4,0.4
	c0,0,0,0,0,0c0,0,0,0,0,0c-0.1,0.1-0.2,0.3-0.2,0.8c0,0.6-0.1,1.7-0.3,2.6c-0.2,0.8-0.2,2-0.2,2.4c0,0.5,0.4,1.7,0.8,2.5
	c0.4,0.7,1.3,1.3,1.8,1.5c0.2,0.1,0.4,0.1,0.7,0.2c0.3,0.1,0.5,0,0.8,0.1c0.4,0.1,0.7,0.4,0.9,0.8c0.3,0.3,0.6,0.6,0.9,0.8
	c0.4,0.2,0.9,0.4,1.3,0.5c0.1,0,0.2,0,0.2,0c0.2,0,0.5,0,0.7-0.2c0.2-0.2,0.3-0.5,0.4-0.8l0-0.1c0-0.3,0-0.4,0.1-1
	c0.1-0.5,0.3-0.9,0.5-1.1c0.1-0.1,0.1-0.1,0.2-0.1C37.9,25.2,38,25.1,37.9,24.7z"/>
</svg>
